%TF.GenerationSoftware,KiCad,Pcbnew,8.0.6*%
%TF.CreationDate,2025-01-02T16:39:55+00:00*%
%TF.ProjectId,stepper_monitor,73746570-7065-4725-9f6d-6f6e69746f72,rev?*%
%TF.SameCoordinates,Original*%
%TF.FileFunction,Soldermask,Top*%
%TF.FilePolarity,Negative*%
%FSLAX46Y46*%
G04 Gerber Fmt 4.6, Leading zero omitted, Abs format (unit mm)*
G04 Created by KiCad (PCBNEW 8.0.6) date 2025-01-02 16:39:55*
%MOMM*%
%LPD*%
G01*
G04 APERTURE LIST*
G04 Aperture macros list*
%AMRoundRect*
0 Rectangle with rounded corners*
0 $1 Rounding radius*
0 $2 $3 $4 $5 $6 $7 $8 $9 X,Y pos of 4 corners*
0 Add a 4 corners polygon primitive as box body*
4,1,4,$2,$3,$4,$5,$6,$7,$8,$9,$2,$3,0*
0 Add four circle primitives for the rounded corners*
1,1,$1+$1,$2,$3*
1,1,$1+$1,$4,$5*
1,1,$1+$1,$6,$7*
1,1,$1+$1,$8,$9*
0 Add four rect primitives between the rounded corners*
20,1,$1+$1,$2,$3,$4,$5,0*
20,1,$1+$1,$4,$5,$6,$7,0*
20,1,$1+$1,$6,$7,$8,$9,0*
20,1,$1+$1,$8,$9,$2,$3,0*%
G04 Aperture macros list end*
%ADD10RoundRect,0.150000X-0.512500X-0.150000X0.512500X-0.150000X0.512500X0.150000X-0.512500X0.150000X0*%
%ADD11RoundRect,0.200000X0.275000X-0.200000X0.275000X0.200000X-0.275000X0.200000X-0.275000X-0.200000X0*%
%ADD12RoundRect,0.200000X-0.275000X0.200000X-0.275000X-0.200000X0.275000X-0.200000X0.275000X0.200000X0*%
%ADD13R,2.700000X0.800000*%
%ADD14RoundRect,0.225000X-0.250000X0.225000X-0.250000X-0.225000X0.250000X-0.225000X0.250000X0.225000X0*%
%ADD15RoundRect,0.140000X-0.140000X-0.170000X0.140000X-0.170000X0.140000X0.170000X-0.140000X0.170000X0*%
%ADD16RoundRect,0.225000X-0.225000X-0.250000X0.225000X-0.250000X0.225000X0.250000X-0.225000X0.250000X0*%
%ADD17R,1.500000X0.900000*%
%ADD18R,0.900000X1.500000*%
%ADD19C,0.600000*%
%ADD20R,3.800000X3.800000*%
%ADD21RoundRect,0.225000X0.225000X0.250000X-0.225000X0.250000X-0.225000X-0.250000X0.225000X-0.250000X0*%
%ADD22RoundRect,0.140000X0.140000X0.170000X-0.140000X0.170000X-0.140000X-0.170000X0.140000X-0.170000X0*%
%ADD23RoundRect,0.140000X0.170000X-0.140000X0.170000X0.140000X-0.170000X0.140000X-0.170000X-0.140000X0*%
%ADD24RoundRect,0.140000X-0.170000X0.140000X-0.170000X-0.140000X0.170000X-0.140000X0.170000X0.140000X0*%
%ADD25RoundRect,0.135000X-0.185000X0.135000X-0.185000X-0.135000X0.185000X-0.135000X0.185000X0.135000X0*%
%ADD26RoundRect,0.135000X-0.135000X-0.185000X0.135000X-0.185000X0.135000X0.185000X-0.135000X0.185000X0*%
%ADD27RoundRect,0.070000X-0.380000X0.070000X-0.380000X-0.070000X0.380000X-0.070000X0.380000X0.070000X0*%
%ADD28RoundRect,0.070000X-0.070000X0.380000X-0.070000X-0.380000X0.070000X-0.380000X0.070000X0.380000X0*%
%ADD29R,3.200000X3.200000*%
%ADD30C,0.650000*%
%ADD31R,1.150000X0.300000*%
%ADD32R,1.150000X0.600000*%
%ADD33O,2.100000X1.000000*%
%ADD34O,1.800000X1.000000*%
%ADD35RoundRect,0.150000X0.825000X-0.150000X0.825000X0.150000X-0.825000X0.150000X-0.825000X-0.150000X0*%
%ADD36O,1.950000X1.700000*%
%ADD37RoundRect,0.250000X-0.725000X0.600000X-0.725000X-0.600000X0.725000X-0.600000X0.725000X0.600000X0*%
%ADD38R,1.200000X0.900000*%
%ADD39RoundRect,0.135000X0.135000X0.185000X-0.135000X0.185000X-0.135000X-0.185000X0.135000X-0.185000X0*%
%ADD40R,1.500000X2.000000*%
%ADD41R,3.800000X2.000000*%
%ADD42RoundRect,0.350000X-0.650000X0.350000X-0.650000X-0.350000X0.650000X-0.350000X0.650000X0.350000X0*%
%ADD43RoundRect,0.135000X0.185000X-0.135000X0.185000X0.135000X-0.185000X0.135000X-0.185000X-0.135000X0*%
%ADD44RoundRect,0.160000X-0.160000X0.222500X-0.160000X-0.222500X0.160000X-0.222500X0.160000X0.222500X0*%
%ADD45R,0.650000X0.400000*%
%ADD46C,0.800000*%
%ADD47C,6.400000*%
%ADD48RoundRect,0.250000X-0.750000X0.600000X-0.750000X-0.600000X0.750000X-0.600000X0.750000X0.600000X0*%
%ADD49O,2.000000X1.700000*%
%ADD50R,0.740000X2.400000*%
G04 APERTURE END LIST*
D10*
%TO.C,U1*%
X6112500Y17200000D03*
X6112500Y16250000D03*
X6112500Y15300000D03*
X8387500Y15300000D03*
X8387500Y16250000D03*
X8387500Y17200000D03*
%TD*%
D11*
%TO.C,R22*%
X4200000Y14625000D03*
X4200000Y16275000D03*
%TD*%
D12*
%TO.C,R21*%
X2000000Y17825000D03*
X2000000Y16175000D03*
%TD*%
D13*
%TO.C,L1*%
X11200000Y17300000D03*
X11200000Y19600000D03*
%TD*%
D14*
%TO.C,C3*%
X4200000Y19475000D03*
X4200000Y17925000D03*
%TD*%
D15*
%TO.C,C2*%
X6820000Y18600000D03*
X7780000Y18600000D03*
%TD*%
D16*
%TO.C,C1*%
X10225000Y15200000D03*
X11775000Y15200000D03*
%TD*%
D17*
%TO.C,U7*%
X23150000Y42720000D03*
X23150000Y41450000D03*
X23150000Y40180000D03*
X23150000Y38910000D03*
X23150000Y37640000D03*
X23150000Y36370000D03*
X23150000Y35100000D03*
X23150000Y33830000D03*
X23150000Y32560000D03*
X23150000Y31290000D03*
X23150000Y30020000D03*
X23150000Y28750000D03*
X23150000Y27480000D03*
X23150000Y26210000D03*
D18*
X26190000Y24960000D03*
X27460000Y24960000D03*
X28730000Y24960000D03*
X30000000Y24960000D03*
X31270000Y24960000D03*
X32540000Y24960000D03*
X33810000Y24960000D03*
X35080000Y24960000D03*
X36350000Y24960000D03*
X37620000Y24960000D03*
D17*
X40650000Y26210000D03*
X40650000Y27480000D03*
X40650000Y28750000D03*
X40650000Y30020000D03*
X40650000Y31290000D03*
X40650000Y32560000D03*
X40650000Y33830000D03*
X40650000Y35100000D03*
X40650000Y36370000D03*
X40650000Y37640000D03*
X40650000Y38910000D03*
X40650000Y40180000D03*
X40650000Y41450000D03*
X40650000Y42720000D03*
D19*
X29000000Y35700000D03*
X29000000Y34300000D03*
X29700000Y36400000D03*
X29700000Y35000000D03*
X29700000Y33600000D03*
X30375000Y35700000D03*
X30375000Y34300000D03*
D20*
X30400000Y35000000D03*
D19*
X31100000Y36400000D03*
X31100000Y35000000D03*
X31100000Y33600000D03*
X31800000Y35700000D03*
X31800000Y34300000D03*
%TD*%
D15*
%TO.C,C8*%
X15246000Y12882400D03*
X14286000Y12882400D03*
%TD*%
D21*
%TO.C,C10*%
X17547000Y11587000D03*
X19097000Y11587000D03*
%TD*%
D22*
%TO.C,C11*%
X17689600Y12907800D03*
X18649600Y12907800D03*
%TD*%
D23*
%TO.C,C4*%
X11700000Y23120000D03*
X11700000Y24080000D03*
%TD*%
D24*
%TO.C,C7*%
X10200000Y24180000D03*
X10200000Y23220000D03*
%TD*%
D25*
%TO.C,R6*%
X19594200Y15108800D03*
X19594200Y16128800D03*
%TD*%
%TO.C,R1*%
X15849600Y38616900D03*
X15849600Y37596900D03*
%TD*%
%TO.C,R2*%
X16916400Y38616900D03*
X16916400Y37596900D03*
%TD*%
D26*
%TO.C,R7*%
X13890000Y23900000D03*
X14910000Y23900000D03*
%TD*%
D27*
%TO.C,U2*%
X9853800Y29338284D03*
X9853800Y28838284D03*
X9853800Y28338284D03*
X9853800Y27838284D03*
X9853800Y27338284D03*
X9853800Y26838284D03*
X9853800Y26338284D03*
D28*
X10853800Y25338284D03*
X11353800Y25338284D03*
X11853800Y25338284D03*
X12353800Y25338284D03*
X12853800Y25338284D03*
X13353800Y25338284D03*
X13853800Y25338284D03*
D27*
X14853800Y26338284D03*
X14853800Y26838284D03*
X14853800Y27338284D03*
X14853800Y27838284D03*
X14853800Y28338284D03*
X14853800Y28838284D03*
X14853800Y29338284D03*
D28*
X13853800Y30338284D03*
X13353800Y30338284D03*
X12853800Y30338284D03*
X12353800Y30338284D03*
X11853800Y30338284D03*
X11353800Y30338284D03*
X10853800Y30338284D03*
D29*
X12353800Y27838284D03*
%TD*%
D30*
%TO.C,J4*%
X6389600Y31947400D03*
X6389600Y26167400D03*
D31*
X7454600Y30307400D03*
X7454600Y29307400D03*
X7454600Y28807400D03*
X7454600Y27807400D03*
X7454600Y27307400D03*
X7454600Y28307400D03*
X7454600Y29807400D03*
X7454600Y30807400D03*
D32*
X7454600Y32257400D03*
X7454600Y25857400D03*
D33*
X6889600Y33377400D03*
D34*
X2709600Y33377400D03*
D33*
X6889600Y24737400D03*
D34*
X2709600Y24737400D03*
D32*
X7454600Y31457400D03*
X7454600Y26657400D03*
%TD*%
D25*
%TO.C,R4*%
X9067800Y33199800D03*
X9067800Y32179800D03*
%TD*%
D26*
%TO.C,R5*%
X8710000Y23200000D03*
X7690000Y23200000D03*
%TD*%
D15*
%TO.C,C14*%
X35619000Y19428800D03*
X34659000Y19428800D03*
%TD*%
D35*
%TO.C,U4*%
X32867200Y14196400D03*
X32867200Y15466400D03*
X32867200Y16736400D03*
X32867200Y18006400D03*
X37817200Y18006400D03*
X37817200Y16736400D03*
X37817200Y15466400D03*
X37817200Y14196400D03*
%TD*%
D25*
%TO.C,R17*%
X39274800Y20926000D03*
X39274800Y21946000D03*
%TD*%
D24*
%TO.C,C15*%
X30998800Y17450200D03*
X30998800Y18410200D03*
%TD*%
D25*
%TO.C,R19*%
X30998800Y15159600D03*
X30998800Y16179600D03*
%TD*%
D36*
%TO.C,J1*%
X26500000Y2000000D03*
X26500000Y4500000D03*
X26500000Y7000000D03*
D37*
X26500000Y9500000D03*
%TD*%
D14*
%TO.C,C12*%
X19900000Y41025000D03*
X19900000Y42575000D03*
%TD*%
D38*
%TO.C,D6*%
X14565000Y18554200D03*
X14565000Y15254200D03*
%TD*%
D39*
%TO.C,R16*%
X17685000Y13898400D03*
X18705000Y13898400D03*
%TD*%
D40*
%TO.C,U3*%
X14320200Y9480000D03*
X16620200Y9480000D03*
D41*
X16620200Y3180000D03*
D40*
X18920200Y9480000D03*
%TD*%
D24*
%TO.C,C9*%
X17452600Y40817800D03*
X17452600Y41777800D03*
%TD*%
D39*
%TO.C,R8*%
X14890000Y20900000D03*
X15910000Y20900000D03*
%TD*%
D24*
%TO.C,C18*%
X20686400Y17475600D03*
X20686400Y18435600D03*
%TD*%
D22*
%TO.C,C16*%
X25713800Y20600000D03*
X26673800Y20600000D03*
%TD*%
D25*
%TO.C,R18*%
X38106400Y20926000D03*
X38106400Y21946000D03*
%TD*%
%TO.C,R15*%
X30405800Y21505000D03*
X30405800Y22525000D03*
%TD*%
D42*
%TO.C,SW1*%
X1879600Y39943800D03*
X1879600Y35743800D03*
%TD*%
D38*
%TO.C,D3*%
X10100000Y9550000D03*
X10100000Y12850000D03*
%TD*%
D25*
%TO.C,R11*%
X11099800Y33199800D03*
X11099800Y32179800D03*
%TD*%
D43*
%TO.C,R3*%
X12000000Y13010000D03*
X12000000Y11990000D03*
%TD*%
D44*
%TO.C,D1*%
X14808200Y38654000D03*
X14808200Y37509000D03*
%TD*%
D43*
%TO.C,R12*%
X18570200Y41810000D03*
X18570200Y40790000D03*
%TD*%
D25*
%TO.C,R14*%
X31625000Y21505000D03*
X31625000Y22525000D03*
%TD*%
D23*
%TO.C,C13*%
X21200000Y42240000D03*
X21200000Y41280000D03*
%TD*%
D45*
%TO.C,Q1*%
X14335800Y32166800D03*
X14335800Y32816800D03*
X14335800Y33466800D03*
X12435800Y33466800D03*
X12435800Y32816800D03*
X12435800Y32166800D03*
%TD*%
D44*
%TO.C,D4*%
X19594200Y17205300D03*
X19594200Y18350300D03*
%TD*%
D39*
%TO.C,R9*%
X17090000Y20900000D03*
X18110000Y20900000D03*
%TD*%
D25*
%TO.C,R20*%
X20686400Y15134200D03*
X20686400Y16154200D03*
%TD*%
D46*
%TO.C,H3*%
X43600000Y40000000D03*
X44302944Y41697056D03*
X44302944Y38302944D03*
X46000000Y42400000D03*
D47*
X46000000Y40000000D03*
D46*
X46000000Y37600000D03*
X47697056Y41697056D03*
X47697056Y38302944D03*
X48400000Y40000000D03*
%TD*%
D44*
%TO.C,D2*%
X17992100Y38657900D03*
X17992100Y37512900D03*
%TD*%
D48*
%TO.C,J3*%
X4000000Y10000000D03*
D49*
X4000000Y7500000D03*
%TD*%
D35*
%TO.C,U5*%
X22529400Y14145600D03*
X22529400Y15415600D03*
X22529400Y16685600D03*
X22529400Y17955600D03*
X27479400Y17955600D03*
X27479400Y16685600D03*
X27479400Y15415600D03*
X27479400Y14145600D03*
%TD*%
D15*
%TO.C,C19*%
X24286200Y20600000D03*
X23326200Y20600000D03*
%TD*%
%TO.C,C17*%
X24316000Y19327200D03*
X23356000Y19327200D03*
%TD*%
D16*
%TO.C,C6*%
X15566400Y11561600D03*
X14016400Y11561600D03*
%TD*%
D46*
%TO.C,H4*%
X43600000Y1000000D03*
X44302944Y2697056D03*
X44302944Y-697056D03*
X46000000Y3400000D03*
D47*
X46000000Y1000000D03*
D46*
X46000000Y-1400000D03*
X47697056Y2697056D03*
X47697056Y-697056D03*
X48400000Y1000000D03*
%TD*%
%TO.C,H2*%
X1600000Y1000000D03*
X2302944Y2697056D03*
X2302944Y-697056D03*
X4000000Y3400000D03*
D47*
X4000000Y1000000D03*
D46*
X4000000Y-1400000D03*
X5697056Y2697056D03*
X5697056Y-697056D03*
X6400000Y1000000D03*
%TD*%
D25*
%TO.C,R13*%
X36684000Y20926000D03*
X36684000Y21946000D03*
%TD*%
D43*
%TO.C,R10*%
X10083800Y32179800D03*
X10083800Y33199800D03*
%TD*%
D50*
%TO.C,J5*%
X5994400Y36935200D03*
X5994400Y40835200D03*
X7264400Y36935200D03*
X7264400Y40835200D03*
X8534400Y36935200D03*
X8534400Y40835200D03*
X9804400Y36935200D03*
X9804400Y40835200D03*
X11074400Y36935200D03*
X11074400Y40835200D03*
%TD*%
D38*
%TO.C,D5*%
X17079600Y18554200D03*
X17079600Y15254200D03*
%TD*%
D36*
%TO.C,J2*%
X38500000Y2000000D03*
X38500000Y4500000D03*
X38500000Y7000000D03*
D37*
X38500000Y9500000D03*
%TD*%
M02*
