M48
; DRILL file {KiCad 8.0.8} date 2025-02-03T14:39:09+0000
; FORMAT={-:-/ absolute / inch / decimal}
; #@! TF.CreationDate,2025-02-03T14:39:09+00:00
; #@! TF.GenerationSoftware,Kicad,Pcbnew,8.0.8
; #@! TF.FileFunction,Plated,1,2,PTH
FMAT,2
INCH
; #@! TA.AperFunction,Plated,PTH,ViaDrill
T1C0.0118
; #@! TA.AperFunction,Plated,PTH,ComponentDrill
T2C0.0118
; #@! TA.AperFunction,Plated,PTH,ViaDrill
T3C0.0150
; #@! TA.AperFunction,Plated,PTH,ViaDrill
T4C0.0157
; #@! TA.AperFunction,Plated,PTH,ComponentDrill
T5C0.0197
; #@! TA.AperFunction,Plated,PTH,ComponentDrill
T6C0.0236
; #@! TA.AperFunction,Plated,PTH,ComponentDrill
T7C0.0374
; #@! TA.AperFunction,Plated,PTH,ComponentDrill
T8C0.0394
; #@! TA.AperFunction,Plated,PTH,ComponentDrill
T9C0.1260
%
G90
G05
T1
X0.126Y0.6732
X0.2165Y0.7323
X0.2598Y0.9173
X0.2835Y0.6575
X0.2835Y0.622
X0.3189Y1.3858
X0.336Y1.1729
X0.336Y1.1309
X0.4331Y0.9102
X0.445Y1.139
X0.445Y1.055
X0.4488Y1.2303
X0.4672Y1.3949
X0.4685Y0.5512
X0.485Y1.096
X0.4864Y1.2283
X0.4961Y0.9488
X0.5157Y0.8898
X0.529Y1.276
X0.529Y1.139
X0.529Y1.055
X0.53Y1.4911
X0.5335Y1.2283
X0.57Y1.208
X0.6378Y0.7795
X0.645Y1.545
X0.6551Y1.6449
X0.6969Y0.8819
X0.7382Y1.6831
X0.7584Y0.755
X0.8974Y0.7359
X0.9055Y0.505
X0.9843Y0.811
X0.9921Y0.7717
X1.0276Y1.1417
X1.0335Y0.7736
X1.0484Y0.504
X1.0551Y1.0827
X1.4134Y1.0827
X1.4134Y0.8869
X1.5763Y0.8239
T2
X1.1417Y1.4055
X1.1417Y1.3504
X1.1693Y1.4331
X1.1693Y1.378
X1.1693Y1.3228
X1.1959Y1.4055
X1.1959Y1.3504
X1.2244Y1.4331
X1.2244Y1.378
X1.2244Y1.3228
X1.252Y1.4055
X1.252Y1.3504
T3
X0.5273Y0.5062
X0.7503Y0.4252
X0.937Y0.9488
X1.1704Y0.5699
X1.2043Y0.5319
X1.3404Y0.7409
T4
X0.17Y1.6089
X0.7453Y0.3142
X1.0315Y1.2441
X1.063Y1.6142
X1.0864Y0.782
X1.4961Y1.624
T5
X0.063Y0.0394
X0.0907Y0.1062
X0.0907Y-0.0274
X0.1575Y0.1339
X0.1575Y-0.0551
X0.2243Y0.1062
X0.2243Y-0.0274
X0.252Y0.0394
X1.7165Y1.5748
X1.7165Y0.0394
X1.7442Y1.6416
X1.7442Y1.508
X1.7442Y0.1062
X1.7442Y-0.0274
X1.811Y1.6693
X1.811Y1.4803
X1.811Y0.1339
X1.811Y-0.0551
X1.8778Y1.6416
X1.8778Y1.508
X1.8778Y0.1062
X1.8778Y-0.0274
X1.9055Y1.5748
X1.9055Y0.0394
T7
X1.0433Y0.374
X1.0433Y0.2756
X1.0433Y0.1772
X1.0433Y0.0787
X1.5157Y0.374
X1.5157Y0.2756
X1.5157Y0.1772
X1.5157Y0.0787
T8
X0.1575Y0.3937
X0.1575Y0.2953
T9
X0.1575Y0.0394
X1.811Y1.5748
X1.811Y0.0394
T6
G00X0.1224Y1.3141
M15
G01X0.0909Y1.3141
M16
G05
G00X0.1224Y0.9739
M15
G01X0.0909Y0.9739
M16
G05
G00X0.2929Y1.3141
M15
G01X0.2496Y1.3141
M16
G05
G00X0.2929Y0.9739
M15
G01X0.2496Y0.9739
M16
G05
M30
