%TF.GenerationSoftware,KiCad,Pcbnew,8.0.8*%
%TF.CreationDate,2025-02-03T14:39:09+00:00*%
%TF.ProjectId,stepper_monitor,73746570-7065-4725-9f6d-6f6e69746f72,rev?*%
%TF.SameCoordinates,Original*%
%TF.FileFunction,Soldermask,Bot*%
%TF.FilePolarity,Negative*%
%FSLAX46Y46*%
G04 Gerber Fmt 4.6, Leading zero omitted, Abs format (unit mm)*
G04 Created by KiCad (PCBNEW 8.0.8) date 2025-02-03 14:39:09*
%MOMM*%
%LPD*%
G01*
G04 APERTURE LIST*
G04 Aperture macros list*
%AMRoundRect*
0 Rectangle with rounded corners*
0 $1 Rounding radius*
0 $2 $3 $4 $5 $6 $7 $8 $9 X,Y pos of 4 corners*
0 Add a 4 corners polygon primitive as box body*
4,1,4,$2,$3,$4,$5,$6,$7,$8,$9,$2,$3,0*
0 Add four circle primitives for the rounded corners*
1,1,$1+$1,$2,$3*
1,1,$1+$1,$4,$5*
1,1,$1+$1,$6,$7*
1,1,$1+$1,$8,$9*
0 Add four rect primitives between the rounded corners*
20,1,$1+$1,$2,$3,$4,$5,0*
20,1,$1+$1,$4,$5,$6,$7,0*
20,1,$1+$1,$6,$7,$8,$9,0*
20,1,$1+$1,$8,$9,$2,$3,0*%
G04 Aperture macros list end*
%ADD10C,0.650000*%
%ADD11O,2.100000X1.000000*%
%ADD12O,1.800000X1.000000*%
%ADD13RoundRect,0.250000X-0.725000X0.600000X-0.725000X-0.600000X0.725000X-0.600000X0.725000X0.600000X0*%
%ADD14O,1.950000X1.700000*%
%ADD15C,0.800000*%
%ADD16C,6.400000*%
%ADD17RoundRect,0.250000X-0.750000X0.600000X-0.750000X-0.600000X0.750000X-0.600000X0.750000X0.600000X0*%
%ADD18O,2.000000X1.700000*%
G04 APERTURE END LIST*
D10*
%TO.C,J4*%
X6389600Y31947400D03*
X6389600Y26167400D03*
D11*
X6889600Y33377400D03*
D12*
X2709600Y33377400D03*
D11*
X6889600Y24737400D03*
D12*
X2709600Y24737400D03*
%TD*%
D13*
%TO.C,J1*%
X26500000Y9500000D03*
D14*
X26500000Y7000000D03*
X26500000Y4500000D03*
X26500000Y2000000D03*
%TD*%
D15*
%TO.C,H3*%
X43600000Y40000000D03*
X44302944Y41697056D03*
X44302944Y38302944D03*
X46000000Y42400000D03*
D16*
X46000000Y40000000D03*
D15*
X46000000Y37600000D03*
X47697056Y41697056D03*
X47697056Y38302944D03*
X48400000Y40000000D03*
%TD*%
D17*
%TO.C,J3*%
X4000000Y10000000D03*
D18*
X4000000Y7500000D03*
%TD*%
D15*
%TO.C,H4*%
X43600000Y1000000D03*
X44302944Y2697056D03*
X44302944Y-697056D03*
X46000000Y3400000D03*
D16*
X46000000Y1000000D03*
D15*
X46000000Y-1400000D03*
X47697056Y2697056D03*
X47697056Y-697056D03*
X48400000Y1000000D03*
%TD*%
%TO.C,H2*%
X1600000Y1000000D03*
X2302944Y2697056D03*
X2302944Y-697056D03*
X4000000Y3400000D03*
D16*
X4000000Y1000000D03*
D15*
X4000000Y-1400000D03*
X5697056Y2697056D03*
X5697056Y-697056D03*
X6400000Y1000000D03*
%TD*%
D13*
%TO.C,J2*%
X38500000Y9500000D03*
D14*
X38500000Y7000000D03*
X38500000Y4500000D03*
X38500000Y2000000D03*
%TD*%
M02*
