%TF.GenerationSoftware,KiCad,Pcbnew,8.0.6*%
%TF.CreationDate,2025-01-02T16:39:55+00:00*%
%TF.ProjectId,stepper_monitor,73746570-7065-4725-9f6d-6f6e69746f72,rev?*%
%TF.SameCoordinates,Original*%
%TF.FileFunction,Copper,L2,Bot*%
%TF.FilePolarity,Positive*%
%FSLAX46Y46*%
G04 Gerber Fmt 4.6, Leading zero omitted, Abs format (unit mm)*
G04 Created by KiCad (PCBNEW 8.0.6) date 2025-01-02 16:39:55*
%MOMM*%
%LPD*%
G01*
G04 APERTURE LIST*
G04 Aperture macros list*
%AMRoundRect*
0 Rectangle with rounded corners*
0 $1 Rounding radius*
0 $2 $3 $4 $5 $6 $7 $8 $9 X,Y pos of 4 corners*
0 Add a 4 corners polygon primitive as box body*
4,1,4,$2,$3,$4,$5,$6,$7,$8,$9,$2,$3,0*
0 Add four circle primitives for the rounded corners*
1,1,$1+$1,$2,$3*
1,1,$1+$1,$4,$5*
1,1,$1+$1,$6,$7*
1,1,$1+$1,$8,$9*
0 Add four rect primitives between the rounded corners*
20,1,$1+$1,$2,$3,$4,$5,0*
20,1,$1+$1,$4,$5,$6,$7,0*
20,1,$1+$1,$6,$7,$8,$9,0*
20,1,$1+$1,$8,$9,$2,$3,0*%
G04 Aperture macros list end*
%TA.AperFunction,HeatsinkPad*%
%ADD10C,0.600000*%
%TD*%
%TA.AperFunction,ComponentPad*%
%ADD11O,2.100000X1.000000*%
%TD*%
%TA.AperFunction,ComponentPad*%
%ADD12O,1.800000X1.000000*%
%TD*%
%TA.AperFunction,ComponentPad*%
%ADD13O,1.950000X1.700000*%
%TD*%
%TA.AperFunction,ComponentPad*%
%ADD14RoundRect,0.250000X-0.725000X0.600000X-0.725000X-0.600000X0.725000X-0.600000X0.725000X0.600000X0*%
%TD*%
%TA.AperFunction,ComponentPad*%
%ADD15C,0.800000*%
%TD*%
%TA.AperFunction,ComponentPad*%
%ADD16C,6.400000*%
%TD*%
%TA.AperFunction,ComponentPad*%
%ADD17RoundRect,0.250000X-0.750000X0.600000X-0.750000X-0.600000X0.750000X-0.600000X0.750000X0.600000X0*%
%TD*%
%TA.AperFunction,ComponentPad*%
%ADD18O,2.000000X1.700000*%
%TD*%
%TA.AperFunction,ViaPad*%
%ADD19C,0.550000*%
%TD*%
%TA.AperFunction,ViaPad*%
%ADD20C,0.800000*%
%TD*%
%TA.AperFunction,ViaPad*%
%ADD21C,0.762000*%
%TD*%
%TA.AperFunction,Conductor*%
%ADD22C,0.762000*%
%TD*%
%TA.AperFunction,Conductor*%
%ADD23C,0.152400*%
%TD*%
%TA.AperFunction,Conductor*%
%ADD24C,0.406400*%
%TD*%
%TA.AperFunction,Conductor*%
%ADD25C,0.228600*%
%TD*%
G04 APERTURE END LIST*
D10*
%TO.P,U7,39,GND*%
%TO.N,GND*%
X29000000Y35700000D03*
X29000000Y34300000D03*
X29700000Y36400000D03*
X29700000Y35000000D03*
X29700000Y33600000D03*
X30375000Y35700000D03*
X30375000Y34300000D03*
X31100000Y36400000D03*
X31100000Y35000000D03*
X31100000Y33600000D03*
X31800000Y35700000D03*
X31800000Y34300000D03*
%TD*%
D11*
%TO.P,J4,SHLD,SHLD*%
%TO.N,GND*%
X6889600Y33377400D03*
D12*
X2709600Y33377400D03*
D11*
X6889600Y24737400D03*
D12*
X2709600Y24737400D03*
%TD*%
D13*
%TO.P,J1,4,Pin_4*%
%TO.N,Net-(J1-Pin_4)*%
X26500000Y2000000D03*
%TO.P,J1,3,Pin_3*%
%TO.N,Net-(J1-Pin_3)*%
X26500000Y4500000D03*
%TO.P,J1,2,Pin_2*%
%TO.N,Net-(J1-Pin_2)*%
X26500000Y7000000D03*
D14*
%TO.P,J1,1,Pin_1*%
%TO.N,Net-(J1-Pin_1)*%
X26500000Y9500000D03*
%TD*%
D15*
%TO.P,H3,1*%
%TO.N,N/C*%
X43600000Y40000000D03*
X44302944Y41697056D03*
X44302944Y38302944D03*
X46000000Y42400000D03*
D16*
X46000000Y40000000D03*
D15*
X46000000Y37600000D03*
X47697056Y41697056D03*
X47697056Y38302944D03*
X48400000Y40000000D03*
%TD*%
D17*
%TO.P,J3,1,Pin_1*%
%TO.N,GND*%
X4000000Y10000000D03*
D18*
%TO.P,J3,2,Pin_2*%
%TO.N,Net-(D3-A)*%
X4000000Y7500000D03*
%TD*%
D15*
%TO.P,H4,1*%
%TO.N,N/C*%
X43600000Y1000000D03*
X44302944Y2697056D03*
X44302944Y-697056D03*
X46000000Y3400000D03*
D16*
X46000000Y1000000D03*
D15*
X46000000Y-1400000D03*
X47697056Y2697056D03*
X47697056Y-697056D03*
X48400000Y1000000D03*
%TD*%
%TO.P,H2,1*%
%TO.N,N/C*%
X1600000Y1000000D03*
X2302944Y2697056D03*
X2302944Y-697056D03*
X4000000Y3400000D03*
D16*
X4000000Y1000000D03*
D15*
X4000000Y-1400000D03*
X5697056Y2697056D03*
X5697056Y-697056D03*
X6400000Y1000000D03*
%TD*%
D13*
%TO.P,J2,4,Pin_4*%
%TO.N,Net-(J1-Pin_4)*%
X38500000Y2000000D03*
%TO.P,J2,3,Pin_3*%
%TO.N,Net-(J2-Pin_3)*%
X38500000Y4500000D03*
%TO.P,J2,2,Pin_2*%
%TO.N,Net-(J2-Pin_2)*%
X38500000Y7000000D03*
D14*
%TO.P,J2,1,Pin_1*%
%TO.N,Net-(J1-Pin_1)*%
X38500000Y9500000D03*
%TD*%
D19*
%TO.N,GND*%
X7200000Y16700000D03*
X18750000Y42750000D03*
X11000000Y23120000D03*
%TO.N,VBUS*%
X12600000Y24100000D03*
X13100000Y22600000D03*
%TO.N,GND*%
X16200000Y19800000D03*
X6600000Y23300000D03*
X3200000Y17100000D03*
X5500000Y18600000D03*
X7200000Y15800000D03*
X11900000Y14000000D03*
%TO.N,+3V3*%
X26630000Y12801600D03*
D20*
X27595200Y19862800D03*
D19*
X23000000Y12827000D03*
D20*
X26200000Y31600000D03*
D21*
%TO.N,Net-(J2-Pin_3)*%
X30589400Y13510600D03*
X29728800Y14475800D03*
D19*
%TO.N,Net-(U2-RXD)*%
X14478000Y30683200D03*
X12353800Y31200000D03*
%TO.N,Net-(U2-TXD)*%
X11400000Y31250000D03*
X13550000Y31200000D03*
%TO.N,EN*%
X13462000Y37875000D03*
X13436600Y32410400D03*
%TO.N,D-*%
X8534400Y28725200D03*
X8534400Y29792000D03*
%TO.N,ESP_TDI*%
X8100000Y35200000D03*
X11868000Y35429402D03*
%TO.N,TXD0*%
X35900000Y22527400D03*
X35900000Y27500000D03*
%TO.N,CHB*%
X26250000Y19650000D03*
X26100000Y29000000D03*
%TO.N,CHA*%
X25200000Y19600000D03*
X26800000Y27500000D03*
%TO.N,GND*%
X11303000Y28930600D03*
X13436600Y28930600D03*
D21*
X34046600Y18819400D03*
D20*
X18931600Y7980200D03*
D19*
X16639600Y41780600D03*
X19264000Y19177000D03*
X12319000Y27838400D03*
X13436600Y26797000D03*
D20*
X38000000Y41250000D03*
D19*
X16383000Y39243000D03*
D21*
X23800000Y24100000D03*
X19058600Y10799600D03*
D20*
X4318000Y40866400D03*
D19*
X17700000Y22400000D03*
X25000000Y20600000D03*
D21*
X13394400Y12857000D03*
D19*
X40036800Y20928000D03*
D20*
X27000000Y41000000D03*
D19*
X22794400Y18692400D03*
X11303000Y26797000D03*
%TD*%
D22*
%TO.N,Net-(J2-Pin_3)*%
X39500000Y12000000D02*
X41100000Y10400000D01*
X41100000Y10400000D02*
X41100000Y7100000D01*
X30589400Y13510600D02*
X32100000Y12000000D01*
X32100000Y12000000D02*
X39500000Y12000000D01*
X41100000Y7100000D02*
X38500000Y4500000D01*
D23*
%TO.N,CHA*%
X27100000Y21500000D02*
X25200000Y19600000D01*
X27100000Y27200000D02*
X27100000Y21500000D01*
X26800000Y27500000D02*
X27100000Y27200000D01*
D24*
%TO.N,+3V3*%
X28100000Y20367600D02*
X27595200Y19862800D01*
X28100000Y28350000D02*
X28100000Y20367600D01*
X26200000Y30250000D02*
X28100000Y28350000D01*
X26200000Y31600000D02*
X26200000Y30250000D01*
D25*
%TO.N,VBUS*%
X13100000Y23600000D02*
X12600000Y24100000D01*
X13100000Y22600000D02*
X13100000Y23600000D01*
D23*
%TO.N,CHB*%
X27500000Y27600000D02*
X27500000Y20900000D01*
X26100000Y29000000D02*
X27500000Y27600000D01*
X27500000Y20900000D02*
X26250000Y19650000D01*
D22*
%TO.N,Net-(J1-Pin_1)*%
X38500000Y9500000D02*
X26500000Y9500000D01*
D25*
%TO.N,+3V3*%
X23025400Y12801600D02*
X26630000Y12801600D01*
D24*
X27576800Y19900200D02*
X27565400Y19888800D01*
D25*
X23000000Y12827000D02*
X23025400Y12801600D01*
D22*
%TO.N,Net-(J2-Pin_3)*%
X29728800Y14475800D02*
X29728800Y14371200D01*
X29728800Y14371200D02*
X30589400Y13510600D01*
D23*
%TO.N,Net-(U2-RXD)*%
X14452600Y30657800D02*
X14478000Y30683200D01*
X12360400Y31251400D02*
X12954000Y30657800D01*
X12353800Y31251400D02*
X12360400Y31251400D01*
X12954000Y30657800D02*
X14452600Y30657800D01*
%TO.N,Net-(U2-TXD)*%
X11862291Y31750000D02*
X11392093Y31279802D01*
X13385800Y31242000D02*
X12877800Y31750000D01*
X13512800Y31242000D02*
X13385800Y31242000D01*
X12877800Y31750000D02*
X11862291Y31750000D01*
%TO.N,EN*%
X13436600Y37849600D02*
X13436600Y32410400D01*
X13462000Y37875000D02*
X13436600Y37849600D01*
%TO.N,D-*%
X8534400Y28725200D02*
X8534400Y29792000D01*
%TO.N,ESP_TDI*%
X11868000Y35429402D02*
X11638598Y35200000D01*
X11638598Y35200000D02*
X8100000Y35200000D01*
%TO.N,TXD0*%
X35900000Y22527400D02*
X35900000Y27500000D01*
%TD*%
%TA.AperFunction,Conductor*%
%TO.N,GND*%
G36*
X44866773Y43479498D02*
G01*
X44913266Y43425842D01*
X44923370Y43355568D01*
X44893876Y43290988D01*
X44838884Y43254096D01*
X44719480Y43213864D01*
X44719468Y43213859D01*
X44502615Y43113531D01*
X44379506Y43056575D01*
X44058532Y42863451D01*
X44058527Y42863447D01*
X43760319Y42636756D01*
X43760304Y42636743D01*
X43488364Y42379147D01*
X43353234Y42220059D01*
X43245857Y42093645D01*
X43035639Y41783597D01*
X42860176Y41452637D01*
X42860175Y41452634D01*
X42860171Y41452625D01*
X42721524Y41104647D01*
X42621307Y40743701D01*
X42560706Y40374046D01*
X42540426Y40000003D01*
X42540426Y39999996D01*
X42560706Y39625953D01*
X42621307Y39256298D01*
X42721524Y38895352D01*
X42860171Y38547374D01*
X42860175Y38547365D01*
X42860176Y38547363D01*
X43035639Y38216403D01*
X43173396Y38013227D01*
X43245859Y37906352D01*
X43488364Y37620852D01*
X43760304Y37363256D01*
X43760319Y37363243D01*
X44058527Y37136552D01*
X44058533Y37136548D01*
X44379504Y36943426D01*
X44379511Y36943422D01*
X44719468Y36786140D01*
X44719480Y36786135D01*
X45074456Y36666530D01*
X45074473Y36666525D01*
X45440285Y36586004D01*
X45440314Y36585999D01*
X45812694Y36545500D01*
X45812702Y36545500D01*
X46187305Y36545500D01*
X46559685Y36585999D01*
X46559714Y36586004D01*
X46925526Y36666525D01*
X46925529Y36666525D01*
X46925534Y36666527D01*
X46925543Y36666530D01*
X47280519Y36786135D01*
X47280531Y36786140D01*
X47620488Y36943422D01*
X47620490Y36943423D01*
X47620494Y36943425D01*
X47941468Y37136549D01*
X47941472Y37136552D01*
X48239680Y37363243D01*
X48239695Y37363256D01*
X48511635Y37620852D01*
X48727509Y37874999D01*
X48754143Y37906355D01*
X48964361Y38216403D01*
X49139824Y38547363D01*
X49256449Y38840069D01*
X49300244Y38895948D01*
X49367298Y38919279D01*
X49436321Y38902654D01*
X49485398Y38851352D01*
X49499500Y38793432D01*
X49499500Y2206567D01*
X49479498Y2138446D01*
X49425842Y2091953D01*
X49355568Y2081849D01*
X49290988Y2111343D01*
X49256449Y2159930D01*
X49217120Y2258638D01*
X49139824Y2452637D01*
X48964361Y2783597D01*
X48754143Y3093645D01*
X48511635Y3379147D01*
X48465659Y3422698D01*
X48239695Y3636743D01*
X48239691Y3636745D01*
X48239681Y3636756D01*
X47941468Y3863451D01*
X47620494Y4056575D01*
X47280520Y4213864D01*
X46925534Y4333473D01*
X46559697Y4413999D01*
X46187298Y4454500D01*
X45812702Y4454500D01*
X45440303Y4413999D01*
X45074466Y4333473D01*
X44719480Y4213864D01*
X44719468Y4213859D01*
X44502615Y4113531D01*
X44379506Y4056575D01*
X44058532Y3863451D01*
X44058527Y3863447D01*
X43760319Y3636756D01*
X43760304Y3636743D01*
X43488364Y3379147D01*
X43301991Y3159731D01*
X43245857Y3093645D01*
X43035639Y2783597D01*
X42860176Y2452637D01*
X42860175Y2452634D01*
X42860171Y2452625D01*
X42721524Y2104647D01*
X42621307Y1743701D01*
X42560706Y1374046D01*
X42540426Y1000003D01*
X42540426Y999996D01*
X42560706Y625953D01*
X42621307Y256298D01*
X42696870Y-15851D01*
X42721524Y-104647D01*
X42860176Y-452637D01*
X43035639Y-783597D01*
X43245857Y-1093645D01*
X43245859Y-1093647D01*
X43488364Y-1379147D01*
X43760304Y-1636743D01*
X43760319Y-1636756D01*
X44058532Y-1863451D01*
X44379506Y-2056575D01*
X44443719Y-2086283D01*
X44719468Y-2213859D01*
X44719480Y-2213864D01*
X44838884Y-2254096D01*
X44897052Y-2294802D01*
X44923979Y-2360494D01*
X44911115Y-2430316D01*
X44862545Y-2482099D01*
X44798652Y-2499500D01*
X5201348Y-2499500D01*
X5133227Y-2479498D01*
X5086734Y-2425842D01*
X5076630Y-2355568D01*
X5106124Y-2290988D01*
X5161116Y-2254096D01*
X5223382Y-2233116D01*
X5280520Y-2213864D01*
X5620494Y-2056575D01*
X5941468Y-1863451D01*
X6239681Y-1636756D01*
X6511635Y-1379147D01*
X6754143Y-1093645D01*
X6964361Y-783597D01*
X7139824Y-452637D01*
X7278476Y-104647D01*
X7378691Y256294D01*
X7388690Y317281D01*
X7404219Y412007D01*
X7439294Y625954D01*
X7455790Y930225D01*
X7459574Y999996D01*
X7459574Y1000003D01*
X7456001Y1065892D01*
X7439294Y1374046D01*
X7378691Y1743706D01*
X7283396Y2086926D01*
X25270500Y2086926D01*
X25270500Y2086922D01*
X25270500Y1913077D01*
X25297698Y1741357D01*
X25351418Y1576023D01*
X25351421Y1576017D01*
X25430349Y1421112D01*
X25532536Y1280464D01*
X25655464Y1157536D01*
X25796112Y1055349D01*
X25951017Y976421D01*
X25951023Y976418D01*
X26116357Y922698D01*
X26116360Y922697D01*
X26116362Y922697D01*
X26288074Y895500D01*
X26288077Y895500D01*
X26711923Y895500D01*
X26711926Y895500D01*
X26883638Y922697D01*
X26883640Y922697D01*
X26883642Y922698D01*
X27048976Y976418D01*
X27048978Y976419D01*
X27048981Y976420D01*
X27203884Y1055347D01*
X27218398Y1065892D01*
X27344535Y1157536D01*
X27467463Y1280464D01*
X27569650Y1421112D01*
X27569653Y1421116D01*
X27648580Y1576019D01*
X27702303Y1741362D01*
X27729500Y1913074D01*
X27729500Y2086926D01*
X37270500Y2086926D01*
X37270500Y2086922D01*
X37270500Y1913077D01*
X37297698Y1741357D01*
X37351418Y1576023D01*
X37351421Y1576017D01*
X37430349Y1421112D01*
X37532536Y1280464D01*
X37655464Y1157536D01*
X37796112Y1055349D01*
X37951017Y976421D01*
X37951023Y976418D01*
X38116357Y922698D01*
X38116360Y922697D01*
X38116362Y922697D01*
X38288074Y895500D01*
X38288077Y895500D01*
X38711923Y895500D01*
X38711926Y895500D01*
X38883638Y922697D01*
X38883640Y922697D01*
X38883642Y922698D01*
X39048976Y976418D01*
X39048978Y976419D01*
X39048981Y976420D01*
X39203884Y1055347D01*
X39218398Y1065892D01*
X39344535Y1157536D01*
X39467463Y1280464D01*
X39569650Y1421112D01*
X39569653Y1421116D01*
X39648580Y1576019D01*
X39702303Y1741362D01*
X39729500Y1913074D01*
X39729500Y2086926D01*
X39702303Y2258638D01*
X39648580Y2423981D01*
X39569653Y2578884D01*
X39467465Y2719533D01*
X39344533Y2842465D01*
X39203884Y2944653D01*
X39048981Y3023580D01*
X38883638Y3077303D01*
X38711926Y3104500D01*
X38288074Y3104500D01*
X38116362Y3077303D01*
X37951019Y3023580D01*
X37796116Y2944653D01*
X37796112Y2944650D01*
X37655464Y2842463D01*
X37532536Y2719535D01*
X37532535Y2719533D01*
X37430347Y2578884D01*
X37351420Y2423981D01*
X37297697Y2258638D01*
X37270500Y2086926D01*
X27729500Y2086926D01*
X27702303Y2258638D01*
X27648580Y2423981D01*
X27569653Y2578884D01*
X27467465Y2719533D01*
X27344533Y2842465D01*
X27203884Y2944653D01*
X27048981Y3023580D01*
X26883638Y3077303D01*
X26711926Y3104500D01*
X26288074Y3104500D01*
X26116362Y3077303D01*
X25951019Y3023580D01*
X25796116Y2944653D01*
X25796112Y2944650D01*
X25655464Y2842463D01*
X25532536Y2719535D01*
X25532535Y2719533D01*
X25430347Y2578884D01*
X25351420Y2423981D01*
X25297697Y2258638D01*
X25270500Y2086926D01*
X7283396Y2086926D01*
X7278476Y2104647D01*
X7139824Y2452637D01*
X6964361Y2783597D01*
X6754143Y3093645D01*
X6511635Y3379147D01*
X6465659Y3422698D01*
X6239695Y3636743D01*
X6239691Y3636745D01*
X6239681Y3636756D01*
X5941468Y3863451D01*
X5620494Y4056575D01*
X5280520Y4213864D01*
X4925534Y4333473D01*
X4559697Y4413999D01*
X4187298Y4454500D01*
X3812702Y4454500D01*
X3440303Y4413999D01*
X3074466Y4333473D01*
X2719480Y4213864D01*
X2719468Y4213859D01*
X2502615Y4113531D01*
X2379506Y4056575D01*
X2058532Y3863451D01*
X2058527Y3863447D01*
X1760319Y3636756D01*
X1760304Y3636743D01*
X1488364Y3379147D01*
X1301991Y3159731D01*
X1245857Y3093645D01*
X1035639Y2783597D01*
X860176Y2452637D01*
X860175Y2452634D01*
X860171Y2452625D01*
X743551Y2159930D01*
X699756Y2104051D01*
X632702Y2080720D01*
X563679Y2097344D01*
X514602Y2148647D01*
X500500Y2206567D01*
X500500Y4586926D01*
X25270500Y4586926D01*
X25270500Y4413074D01*
X25297697Y4241362D01*
X25297698Y4241357D01*
X25351418Y4076023D01*
X25351421Y4076017D01*
X25430349Y3921112D01*
X25532536Y3780464D01*
X25655464Y3657536D01*
X25796112Y3555349D01*
X25951017Y3476421D01*
X25951023Y3476418D01*
X26116357Y3422698D01*
X26116360Y3422697D01*
X26116362Y3422697D01*
X26288074Y3395500D01*
X26288077Y3395500D01*
X26711923Y3395500D01*
X26711926Y3395500D01*
X26883638Y3422697D01*
X26883640Y3422697D01*
X26883642Y3422698D01*
X27048976Y3476418D01*
X27048978Y3476419D01*
X27048981Y3476420D01*
X27203884Y3555347D01*
X27203887Y3555349D01*
X27344535Y3657536D01*
X27467463Y3780464D01*
X27569650Y3921112D01*
X27569653Y3921116D01*
X27648580Y4076019D01*
X27702303Y4241362D01*
X27729500Y4413074D01*
X27729500Y4586926D01*
X27702303Y4758638D01*
X27648580Y4923981D01*
X27569653Y5078884D01*
X27467465Y5219533D01*
X27344533Y5342465D01*
X27203884Y5444653D01*
X27048981Y5523580D01*
X26883638Y5577303D01*
X26711926Y5604500D01*
X26288074Y5604500D01*
X26116362Y5577303D01*
X25951019Y5523580D01*
X25796116Y5444653D01*
X25796112Y5444650D01*
X25655464Y5342463D01*
X25532536Y5219535D01*
X25532535Y5219533D01*
X25430347Y5078884D01*
X25351420Y4923981D01*
X25297697Y4758638D01*
X25270500Y4586926D01*
X500500Y4586926D01*
X500500Y10650516D01*
X2492000Y10650516D01*
X2492000Y10254000D01*
X3569297Y10254000D01*
X3534075Y10192993D01*
X3500000Y10065826D01*
X3500000Y9934174D01*
X3534075Y9807007D01*
X3569297Y9746000D01*
X2492000Y9746000D01*
X2492000Y9349483D01*
X2502605Y9245681D01*
X2502606Y9245678D01*
X2558342Y9077474D01*
X2651365Y8926660D01*
X2651370Y8926654D01*
X2776654Y8801370D01*
X2776660Y8801365D01*
X2927474Y8708342D01*
X3095678Y8652606D01*
X3095681Y8652605D01*
X3172459Y8644761D01*
X3238194Y8617939D01*
X3278992Y8559836D01*
X3281901Y8488899D01*
X3245997Y8427650D01*
X3233713Y8417478D01*
X3130464Y8342463D01*
X3007536Y8219535D01*
X3007535Y8219533D01*
X2905347Y8078884D01*
X2826420Y7923981D01*
X2772697Y7758638D01*
X2745500Y7586926D01*
X2745500Y7413074D01*
X2769960Y7258642D01*
X2772698Y7241357D01*
X2826418Y7076023D01*
X2826421Y7076017D01*
X2905349Y6921112D01*
X3007536Y6780464D01*
X3130464Y6657536D01*
X3271112Y6555349D01*
X3426017Y6476421D01*
X3426023Y6476418D01*
X3591357Y6422698D01*
X3591360Y6422697D01*
X3591362Y6422697D01*
X3763074Y6395500D01*
X3763077Y6395500D01*
X4236923Y6395500D01*
X4236926Y6395500D01*
X4408638Y6422697D01*
X4408640Y6422697D01*
X4408642Y6422698D01*
X4573976Y6476418D01*
X4573978Y6476419D01*
X4573981Y6476420D01*
X4728884Y6555347D01*
X4757334Y6576017D01*
X4869535Y6657536D01*
X4992463Y6780464D01*
X5094650Y6921112D01*
X5094653Y6921116D01*
X5173580Y7076019D01*
X5177124Y7086926D01*
X25270500Y7086926D01*
X25270500Y6913074D01*
X25291504Y6780464D01*
X25297698Y6741357D01*
X25351418Y6576023D01*
X25351421Y6576017D01*
X25430349Y6421112D01*
X25532536Y6280464D01*
X25655464Y6157536D01*
X25796112Y6055349D01*
X25951017Y5976421D01*
X25951023Y5976418D01*
X26116357Y5922698D01*
X26116360Y5922697D01*
X26116362Y5922697D01*
X26288074Y5895500D01*
X26288077Y5895500D01*
X26711923Y5895500D01*
X26711926Y5895500D01*
X26883638Y5922697D01*
X26883640Y5922697D01*
X26883642Y5922698D01*
X27048976Y5976418D01*
X27048978Y5976419D01*
X27048981Y5976420D01*
X27203884Y6055347D01*
X27203887Y6055349D01*
X27344535Y6157536D01*
X27467463Y6280464D01*
X27569650Y6421112D01*
X27569653Y6421116D01*
X27648580Y6576019D01*
X27702303Y6741362D01*
X27729500Y6913074D01*
X27729500Y7086926D01*
X27702303Y7258638D01*
X27648580Y7423981D01*
X27569653Y7578884D01*
X27467465Y7719533D01*
X27344533Y7842465D01*
X27203884Y7944653D01*
X27048981Y8023580D01*
X26883638Y8077303D01*
X26711926Y8104500D01*
X26288074Y8104500D01*
X26116362Y8077303D01*
X25951019Y8023580D01*
X25796116Y7944653D01*
X25796112Y7944650D01*
X25655464Y7842463D01*
X25532536Y7719535D01*
X25430349Y7578887D01*
X25351421Y7423982D01*
X25351418Y7423976D01*
X25297698Y7258642D01*
X25297697Y7258638D01*
X25270500Y7086926D01*
X5177124Y7086926D01*
X5227303Y7241362D01*
X5254500Y7413074D01*
X5254500Y7586926D01*
X5227303Y7758638D01*
X5173580Y7923981D01*
X5094653Y8078884D01*
X4992465Y8219533D01*
X4869533Y8342465D01*
X4766284Y8417479D01*
X4722932Y8473700D01*
X4716857Y8544436D01*
X4749988Y8607228D01*
X4811808Y8642139D01*
X4827540Y8644761D01*
X4904318Y8652605D01*
X4904321Y8652606D01*
X5072525Y8708342D01*
X5223339Y8801365D01*
X5223345Y8801370D01*
X5348629Y8926654D01*
X5348634Y8926660D01*
X5441657Y9077474D01*
X5497393Y9245678D01*
X5497394Y9245681D01*
X5507999Y9349483D01*
X5508000Y9349483D01*
X5508000Y9746000D01*
X4430703Y9746000D01*
X4465925Y9807007D01*
X4500000Y9934174D01*
X4500000Y10065826D01*
X4477911Y10148262D01*
X25270500Y10148262D01*
X25270500Y8851753D01*
X25270502Y8851729D01*
X25276959Y8791660D01*
X25276959Y8791658D01*
X25327657Y8655733D01*
X25414596Y8539596D01*
X25530734Y8452657D01*
X25530733Y8452657D01*
X25666650Y8401962D01*
X25666658Y8401960D01*
X25726743Y8395500D01*
X25726745Y8395500D01*
X27273246Y8395500D01*
X27273270Y8395502D01*
X27333339Y8401959D01*
X27333341Y8401959D01*
X27469266Y8452657D01*
X27517680Y8488899D01*
X27585404Y8539596D01*
X27672342Y8655733D01*
X27719637Y8782533D01*
X27762184Y8839369D01*
X27828704Y8864179D01*
X27837692Y8864500D01*
X37162308Y8864500D01*
X37230429Y8844498D01*
X37276922Y8790842D01*
X37280363Y8782533D01*
X37327657Y8655734D01*
X37414596Y8539596D01*
X37530734Y8452657D01*
X37530733Y8452657D01*
X37666650Y8401962D01*
X37666658Y8401960D01*
X37726743Y8395500D01*
X37726745Y8395500D01*
X39273246Y8395500D01*
X39273270Y8395502D01*
X39333339Y8401959D01*
X39333341Y8401959D01*
X39469266Y8452657D01*
X39517680Y8488899D01*
X39585404Y8539596D01*
X39672342Y8655733D01*
X39723040Y8791658D01*
X39729500Y8851745D01*
X39729499Y10148254D01*
X39723040Y10208342D01*
X39672342Y10344267D01*
X39585404Y10460404D01*
X39469267Y10547342D01*
X39333342Y10598040D01*
X39273255Y10604500D01*
X37726746Y10604499D01*
X37666658Y10598040D01*
X37530733Y10547342D01*
X37414596Y10460404D01*
X37369453Y10400099D01*
X37327657Y10344265D01*
X37280363Y10217467D01*
X37237816Y10160631D01*
X37171296Y10135821D01*
X37162308Y10135500D01*
X27837692Y10135500D01*
X27769571Y10155502D01*
X27723078Y10209158D01*
X27719637Y10217467D01*
X27686239Y10307007D01*
X27672342Y10344267D01*
X27585404Y10460404D01*
X27469267Y10547342D01*
X27333342Y10598040D01*
X27273255Y10604500D01*
X25726746Y10604499D01*
X25666658Y10598040D01*
X25530733Y10547342D01*
X25414596Y10460404D01*
X25369453Y10400099D01*
X25327657Y10344265D01*
X25276962Y10208349D01*
X25276960Y10208341D01*
X25270500Y10148262D01*
X4477911Y10148262D01*
X4465925Y10192993D01*
X4430703Y10254000D01*
X5508000Y10254000D01*
X5508000Y10650516D01*
X5497394Y10754318D01*
X5497393Y10754321D01*
X5441657Y10922525D01*
X5348634Y11073339D01*
X5348629Y11073345D01*
X5223345Y11198629D01*
X5223339Y11198634D01*
X5072525Y11291657D01*
X4904321Y11347393D01*
X4904318Y11347394D01*
X4800516Y11357999D01*
X4800516Y11358000D01*
X4254000Y11358000D01*
X4254000Y10430702D01*
X4192993Y10465925D01*
X4065826Y10500000D01*
X3934174Y10500000D01*
X3807007Y10465925D01*
X3746000Y10430702D01*
X3746000Y11358000D01*
X3199484Y11358000D01*
X3199483Y11357999D01*
X3095681Y11347394D01*
X3095678Y11347393D01*
X2927474Y11291657D01*
X2776660Y11198634D01*
X2776654Y11198629D01*
X2651370Y11073345D01*
X2651365Y11073339D01*
X2558342Y10922525D01*
X2502606Y10754321D01*
X2502605Y10754318D01*
X2492000Y10650516D01*
X500500Y10650516D01*
X500500Y12827000D01*
X22465931Y12827000D01*
X22484129Y12688773D01*
X22494650Y12663374D01*
X22537482Y12559966D01*
X22537484Y12559963D01*
X22622356Y12449356D01*
X22732963Y12364484D01*
X22732966Y12364482D01*
X22794286Y12339083D01*
X22861773Y12311129D01*
X23000000Y12292931D01*
X23138227Y12311129D01*
X23267035Y12364483D01*
X23322136Y12406763D01*
X23388356Y12432363D01*
X23398839Y12432800D01*
X26198059Y12432800D01*
X26266180Y12412798D01*
X26274756Y12406767D01*
X26314627Y12376173D01*
X26362963Y12339084D01*
X26362966Y12339082D01*
X26430452Y12311129D01*
X26491773Y12285729D01*
X26630000Y12267531D01*
X26768227Y12285729D01*
X26897035Y12339083D01*
X27007644Y12423956D01*
X27092517Y12534565D01*
X27145871Y12663373D01*
X27164069Y12801600D01*
X27145871Y12939827D01*
X27092517Y13068634D01*
X27007644Y13179244D01*
X26897035Y13264117D01*
X26768227Y13317471D01*
X26630000Y13335669D01*
X26491773Y13317471D01*
X26362966Y13264117D01*
X26362960Y13264112D01*
X26362959Y13264112D01*
X26274762Y13196437D01*
X26208542Y13170837D01*
X26198059Y13170400D01*
X23464079Y13170400D01*
X23395958Y13190402D01*
X23384321Y13199779D01*
X23384196Y13199616D01*
X23377644Y13204642D01*
X23377644Y13204644D01*
X23267035Y13289517D01*
X23138227Y13342871D01*
X23000000Y13361069D01*
X22861773Y13342871D01*
X22732966Y13289517D01*
X22732960Y13289512D01*
X22732959Y13289512D01*
X22622355Y13204644D01*
X22537487Y13094040D01*
X22537485Y13094037D01*
X22537483Y13094034D01*
X22518270Y13047649D01*
X22484128Y12965225D01*
X22465931Y12827000D01*
X500500Y12827000D01*
X500500Y14475800D01*
X29088632Y14475800D01*
X29088632Y14475798D01*
X29092381Y14444924D01*
X29093300Y14429736D01*
X29093300Y14308606D01*
X29117722Y14185830D01*
X29117724Y14185825D01*
X29165627Y14070177D01*
X29235172Y13966096D01*
X29235173Y13966094D01*
X30091095Y13110172D01*
X30105689Y13092662D01*
X30110224Y13086093D01*
X30110226Y13086090D01*
X30110227Y13086090D01*
X30145851Y13054529D01*
X30150768Y13050173D01*
X30156308Y13044958D01*
X31606375Y11594892D01*
X31694889Y11506377D01*
X31694896Y11506372D01*
X31798977Y11436827D01*
X31914625Y11388924D01*
X31914630Y11388922D01*
X32037406Y11364500D01*
X32037409Y11364500D01*
X39184577Y11364500D01*
X39252698Y11344498D01*
X39273672Y11327595D01*
X40427595Y10173672D01*
X40461621Y10111360D01*
X40464500Y10084577D01*
X40464500Y7415423D01*
X40444498Y7347302D01*
X40427595Y7326328D01*
X39944595Y6843328D01*
X39882283Y6809302D01*
X39811468Y6814367D01*
X39754632Y6856914D01*
X39729821Y6923434D01*
X39729500Y6932423D01*
X39729500Y7086922D01*
X39729500Y7086926D01*
X39702303Y7258638D01*
X39648580Y7423981D01*
X39569653Y7578884D01*
X39467465Y7719533D01*
X39344533Y7842465D01*
X39203884Y7944653D01*
X39048981Y8023580D01*
X38883638Y8077303D01*
X38711926Y8104500D01*
X38288074Y8104500D01*
X38116362Y8077303D01*
X37951019Y8023580D01*
X37796116Y7944653D01*
X37796112Y7944650D01*
X37655464Y7842463D01*
X37532536Y7719535D01*
X37430349Y7578887D01*
X37351421Y7423982D01*
X37351418Y7423976D01*
X37297698Y7258642D01*
X37297697Y7258638D01*
X37270500Y7086926D01*
X37270500Y6913074D01*
X37291504Y6780464D01*
X37297698Y6741357D01*
X37351418Y6576023D01*
X37351421Y6576017D01*
X37430349Y6421112D01*
X37532536Y6280464D01*
X37655464Y6157536D01*
X37796112Y6055349D01*
X37951017Y5976421D01*
X37951023Y5976418D01*
X38116357Y5922698D01*
X38116360Y5922697D01*
X38116362Y5922697D01*
X38288074Y5895500D01*
X38288077Y5895500D01*
X38692577Y5895500D01*
X38760698Y5875498D01*
X38807191Y5821842D01*
X38817295Y5751568D01*
X38787801Y5686988D01*
X38781672Y5680405D01*
X38742672Y5641405D01*
X38680360Y5607379D01*
X38653577Y5604500D01*
X38288074Y5604500D01*
X38116362Y5577303D01*
X37951019Y5523580D01*
X37796116Y5444653D01*
X37796112Y5444650D01*
X37655464Y5342463D01*
X37532536Y5219535D01*
X37532535Y5219533D01*
X37430347Y5078884D01*
X37351420Y4923981D01*
X37297697Y4758638D01*
X37270500Y4586926D01*
X37270500Y4413074D01*
X37297697Y4241362D01*
X37297698Y4241357D01*
X37351418Y4076023D01*
X37351421Y4076017D01*
X37430349Y3921112D01*
X37532536Y3780464D01*
X37655464Y3657536D01*
X37796112Y3555349D01*
X37951017Y3476421D01*
X37951023Y3476418D01*
X38116357Y3422698D01*
X38116360Y3422697D01*
X38116362Y3422697D01*
X38288074Y3395500D01*
X38288077Y3395500D01*
X38711923Y3395500D01*
X38711926Y3395500D01*
X38883638Y3422697D01*
X38883640Y3422697D01*
X38883642Y3422698D01*
X39048976Y3476418D01*
X39048978Y3476419D01*
X39048981Y3476420D01*
X39203884Y3555347D01*
X39203887Y3555349D01*
X39344535Y3657536D01*
X39467463Y3780464D01*
X39569650Y3921112D01*
X39569653Y3921116D01*
X39648580Y4076019D01*
X39702303Y4241362D01*
X39729500Y4413074D01*
X39729500Y4586926D01*
X39706202Y4734019D01*
X39715301Y4804428D01*
X39741556Y4842823D01*
X41593622Y6694889D01*
X41593625Y6694892D01*
X41663173Y6798978D01*
X41711078Y6914631D01*
X41735500Y7037409D01*
X41735500Y7162591D01*
X41735500Y10462591D01*
X41711078Y10585369D01*
X41663173Y10701022D01*
X41593625Y10805108D01*
X41505108Y10893625D01*
X39905108Y12493625D01*
X39801022Y12563173D01*
X39685369Y12611078D01*
X39562591Y12635500D01*
X39562590Y12635500D01*
X32415423Y12635500D01*
X32347302Y12655502D01*
X32326333Y12672399D01*
X31087691Y13911040D01*
X31073103Y13928546D01*
X31068573Y13935110D01*
X31028011Y13971043D01*
X31022502Y13976229D01*
X30994508Y14004225D01*
X30359236Y14639495D01*
X30331925Y14680367D01*
X30320310Y14708407D01*
X30318937Y14711872D01*
X30295641Y14773301D01*
X30254977Y14832211D01*
X30253975Y14833688D01*
X30222425Y14880908D01*
X30222413Y14880919D01*
X30219077Y14884986D01*
X30212787Y14893334D01*
X30207973Y14900310D01*
X30167411Y14936243D01*
X30161903Y14941428D01*
X30133908Y14969425D01*
X30124967Y14975399D01*
X30111414Y14985853D01*
X30092457Y15002648D01*
X30059794Y15019790D01*
X30048379Y15026573D01*
X30029822Y15038973D01*
X30003875Y15049719D01*
X29993577Y15054542D01*
X29955807Y15074367D01*
X29936825Y15079045D01*
X29918768Y15084972D01*
X29914169Y15086878D01*
X29869692Y15095724D01*
X29864148Y15096958D01*
X29805964Y15111300D01*
X29651636Y15111300D01*
X29593469Y15096963D01*
X29593457Y15096960D01*
X29587886Y15095720D01*
X29543431Y15086878D01*
X29543429Y15086877D01*
X29543426Y15086876D01*
X29538842Y15084977D01*
X29520769Y15079044D01*
X29501793Y15074367D01*
X29501789Y15074365D01*
X29501787Y15074364D01*
X29464042Y15054554D01*
X29453704Y15049712D01*
X29427777Y15038973D01*
X29409244Y15026589D01*
X29397802Y15019789D01*
X29365143Y15002648D01*
X29346177Y14985846D01*
X29332636Y14975401D01*
X29323692Y14969425D01*
X29295702Y14941435D01*
X29290176Y14936233D01*
X29249628Y14900311D01*
X29249626Y14900309D01*
X29244808Y14893329D01*
X29238511Y14884973D01*
X29235175Y14880909D01*
X29203621Y14833684D01*
X29202561Y14832123D01*
X29161959Y14773301D01*
X29138662Y14711872D01*
X29137259Y14708336D01*
X29117720Y14661165D01*
X29116446Y14656965D01*
X29112114Y14641870D01*
X29107234Y14629002D01*
X29101398Y14580944D01*
X29099896Y14571554D01*
X29093300Y14538397D01*
X29093300Y14521863D01*
X29092381Y14506674D01*
X29088632Y14475800D01*
X500500Y14475800D01*
X500500Y19600000D01*
X24665931Y19600000D01*
X24665931Y19599999D01*
X24684129Y19461774D01*
X24737482Y19332966D01*
X24737484Y19332963D01*
X24822356Y19222356D01*
X24932963Y19137484D01*
X24932966Y19137482D01*
X24984996Y19115931D01*
X25061773Y19084129D01*
X25200000Y19065931D01*
X25338227Y19084129D01*
X25467035Y19137483D01*
X25577644Y19222356D01*
X25577646Y19222358D01*
X25644221Y19309120D01*
X25701559Y19350987D01*
X25772430Y19355209D01*
X25834332Y19320445D01*
X25844145Y19309121D01*
X25872355Y19272356D01*
X25982963Y19187484D01*
X25982966Y19187482D01*
X26058420Y19156228D01*
X26111773Y19134129D01*
X26250000Y19115931D01*
X26388227Y19134129D01*
X26517035Y19187483D01*
X26627644Y19272356D01*
X26712517Y19382965D01*
X26765871Y19511773D01*
X26768197Y19529441D01*
X26796919Y19594368D01*
X26856185Y19633460D01*
X26927176Y19634305D01*
X26987355Y19596635D01*
X27007677Y19563053D01*
X27007871Y19563155D01*
X27009535Y19559983D01*
X27010929Y19557681D01*
X27011410Y19556410D01*
X27011415Y19556401D01*
X27101701Y19425600D01*
X27220669Y19320202D01*
X27220674Y19320198D01*
X27361402Y19246339D01*
X27361409Y19246336D01*
X27515727Y19208300D01*
X27515729Y19208300D01*
X27674672Y19208300D01*
X27828990Y19246336D01*
X27828991Y19246336D01*
X27828993Y19246337D01*
X27828997Y19246339D01*
X27969725Y19320198D01*
X27969730Y19320202D01*
X27984136Y19332965D01*
X28088698Y19425599D01*
X28178987Y19556405D01*
X28235349Y19705018D01*
X28235350Y19705021D01*
X28250927Y19833318D01*
X28278993Y19898532D01*
X28286902Y19907216D01*
X28466251Y20086565D01*
X28489218Y20126345D01*
X28526507Y20190931D01*
X28526508Y20190934D01*
X28557699Y20307338D01*
X28557700Y20307342D01*
X28557700Y27500000D01*
X35365931Y27500000D01*
X35365931Y27499999D01*
X35384129Y27361774D01*
X35437482Y27232966D01*
X35437484Y27232963D01*
X35522361Y27122349D01*
X35528195Y27116516D01*
X35526687Y27115008D01*
X35561873Y27066819D01*
X35569300Y27024198D01*
X35569300Y23003201D01*
X35549298Y22935080D01*
X35527591Y22911489D01*
X35528196Y22910885D01*
X35522358Y22905047D01*
X35437487Y22794440D01*
X35437485Y22794437D01*
X35437483Y22794434D01*
X35391941Y22684488D01*
X35384128Y22665625D01*
X35365931Y22527400D01*
X35365931Y22527399D01*
X35384129Y22389174D01*
X35437482Y22260366D01*
X35437484Y22260363D01*
X35522356Y22149756D01*
X35632963Y22064884D01*
X35632966Y22064882D01*
X35708420Y22033628D01*
X35761773Y22011529D01*
X35900000Y21993331D01*
X36038227Y22011529D01*
X36167035Y22064883D01*
X36277644Y22149756D01*
X36362517Y22260365D01*
X36415871Y22389173D01*
X36434069Y22527400D01*
X36415871Y22665627D01*
X36362517Y22794434D01*
X36277644Y22905044D01*
X36277642Y22905045D01*
X36277641Y22905047D01*
X36271805Y22910884D01*
X36273314Y22912393D01*
X36238134Y22960563D01*
X36230700Y23003201D01*
X36230700Y27024198D01*
X36250702Y27092319D01*
X36272407Y27115913D01*
X36271805Y27116516D01*
X36277638Y27122349D01*
X36277642Y27122354D01*
X36277644Y27122356D01*
X36362517Y27232965D01*
X36415871Y27361773D01*
X36434069Y27500000D01*
X36415871Y27638227D01*
X36362517Y27767034D01*
X36277644Y27877644D01*
X36167035Y27962517D01*
X36038227Y28015871D01*
X35900000Y28034069D01*
X35761773Y28015871D01*
X35632966Y27962517D01*
X35632960Y27962512D01*
X35632959Y27962512D01*
X35522355Y27877644D01*
X35437487Y27767040D01*
X35437485Y27767037D01*
X35437483Y27767034D01*
X35391941Y27657088D01*
X35384128Y27638225D01*
X35365931Y27500000D01*
X28557700Y27500000D01*
X28557700Y28410256D01*
X28557700Y28410257D01*
X28540713Y28473654D01*
X28537906Y28484131D01*
X28532207Y28505397D01*
X28526508Y28526666D01*
X28466251Y28631034D01*
X26694605Y30402680D01*
X26660580Y30464992D01*
X26657700Y30491775D01*
X26657700Y31074605D01*
X26677702Y31142726D01*
X26689384Y31158155D01*
X26693499Y31162800D01*
X26783784Y31293601D01*
X26783787Y31293605D01*
X26840149Y31442218D01*
X26840150Y31442220D01*
X26859307Y31599996D01*
X26859307Y31600003D01*
X26840150Y31757779D01*
X26830648Y31782834D01*
X26783787Y31906395D01*
X26693498Y32037201D01*
X26574529Y32142599D01*
X26433793Y32216463D01*
X26279471Y32254500D01*
X26120529Y32254500D01*
X25966207Y32216463D01*
X25904983Y32184330D01*
X25825474Y32142601D01*
X25825472Y32142599D01*
X25825471Y32142599D01*
X25706502Y32037201D01*
X25616213Y31906395D01*
X25616212Y31906392D01*
X25559849Y31757779D01*
X25540693Y31600003D01*
X25540693Y31599996D01*
X25559849Y31442220D01*
X25616212Y31293607D01*
X25616215Y31293601D01*
X25706500Y31162800D01*
X25710616Y31158155D01*
X25740814Y31093900D01*
X25742300Y31074605D01*
X25742300Y30189738D01*
X25773491Y30073334D01*
X25773492Y30073331D01*
X25833746Y29968968D01*
X25833751Y29968962D01*
X26068358Y29734355D01*
X26102383Y29672043D01*
X26097318Y29601227D01*
X26054771Y29544392D01*
X25995708Y29520338D01*
X25961773Y29515871D01*
X25832966Y29462517D01*
X25832960Y29462512D01*
X25832959Y29462512D01*
X25722355Y29377644D01*
X25637487Y29267040D01*
X25637485Y29267037D01*
X25637483Y29267034D01*
X25610131Y29201001D01*
X25584128Y29138225D01*
X25565931Y29000000D01*
X25565931Y28999999D01*
X25584129Y28861774D01*
X25637482Y28732966D01*
X25637484Y28732963D01*
X25722356Y28622356D01*
X25832963Y28537484D01*
X25832966Y28537482D01*
X25908420Y28506228D01*
X25961773Y28484129D01*
X26100000Y28465931D01*
X26108258Y28465931D01*
X26108258Y28463797D01*
X26167207Y28454606D01*
X26202601Y28429717D01*
X26508797Y28123521D01*
X26542823Y28061209D01*
X26537758Y27990394D01*
X26496405Y27934463D01*
X26422355Y27877644D01*
X26337487Y27767040D01*
X26337485Y27767037D01*
X26337483Y27767034D01*
X26291941Y27657088D01*
X26284128Y27638225D01*
X26265931Y27500000D01*
X26265931Y27499999D01*
X26284129Y27361774D01*
X26337482Y27232966D01*
X26337484Y27232963D01*
X26422356Y27122356D01*
X26532963Y27037484D01*
X26532966Y27037482D01*
X26661774Y26984128D01*
X26669752Y26981991D01*
X26669268Y26980185D01*
X26724685Y26955663D01*
X26763770Y26896393D01*
X26769300Y26859473D01*
X26769300Y21689170D01*
X26749298Y21621049D01*
X26732395Y21600075D01*
X25302602Y20170282D01*
X25240290Y20136256D01*
X25208259Y20134924D01*
X25208259Y20134069D01*
X25200000Y20134069D01*
X25061773Y20115871D01*
X24932966Y20062517D01*
X24932960Y20062512D01*
X24932959Y20062512D01*
X24822355Y19977644D01*
X24737487Y19867040D01*
X24737485Y19867037D01*
X24737483Y19867034D01*
X24691941Y19757088D01*
X24684128Y19738225D01*
X24665931Y19600000D01*
X500500Y19600000D01*
X500500Y24991400D01*
X1332376Y24991400D01*
X2149540Y24991400D01*
X2125395Y24977460D01*
X2069540Y24921605D01*
X2030044Y24853196D01*
X2009600Y24776896D01*
X2009600Y24697904D01*
X2030044Y24621604D01*
X2069540Y24553195D01*
X2125395Y24497340D01*
X2149540Y24483400D01*
X1332376Y24483400D01*
X1340337Y24443376D01*
X1340339Y24443371D01*
X1416322Y24259933D01*
X1526632Y24094842D01*
X1526637Y24094835D01*
X1667035Y23954437D01*
X1667042Y23954432D01*
X1832133Y23844122D01*
X2015571Y23768139D01*
X2015576Y23768137D01*
X2210318Y23729400D01*
X2455600Y23729400D01*
X2455600Y24437400D01*
X2963600Y24437400D01*
X2963600Y23729400D01*
X3208881Y23729400D01*
X3403623Y23768137D01*
X3403628Y23768139D01*
X3587066Y23844122D01*
X3752157Y23954432D01*
X3752164Y23954437D01*
X3892562Y24094835D01*
X3892567Y24094842D01*
X4002877Y24259933D01*
X4078860Y24443371D01*
X4078862Y24443376D01*
X4086824Y24483400D01*
X3269660Y24483400D01*
X3293805Y24497340D01*
X3349660Y24553195D01*
X3389156Y24621604D01*
X3409600Y24697904D01*
X3409600Y24776896D01*
X3389156Y24853196D01*
X3349660Y24921605D01*
X3293805Y24977460D01*
X3269660Y24991400D01*
X4086823Y24991400D01*
X5362376Y24991400D01*
X6179540Y24991400D01*
X6155395Y24977460D01*
X6099540Y24921605D01*
X6060044Y24853196D01*
X6039600Y24776896D01*
X6039600Y24697904D01*
X6060044Y24621604D01*
X6099540Y24553195D01*
X6155395Y24497340D01*
X6179540Y24483400D01*
X5362376Y24483400D01*
X5370337Y24443376D01*
X5370339Y24443371D01*
X5446322Y24259933D01*
X5556632Y24094842D01*
X5556637Y24094835D01*
X5697035Y23954437D01*
X5697042Y23954432D01*
X5862133Y23844122D01*
X6045571Y23768139D01*
X6045576Y23768137D01*
X6240318Y23729400D01*
X6635600Y23729400D01*
X6635600Y24437400D01*
X7143600Y24437400D01*
X7143600Y23729400D01*
X7538881Y23729400D01*
X7733623Y23768137D01*
X7733628Y23768139D01*
X7917066Y23844122D01*
X8082157Y23954432D01*
X8082164Y23954437D01*
X8222562Y24094835D01*
X8222567Y24094842D01*
X8226013Y24100000D01*
X12065931Y24100000D01*
X12065931Y24099999D01*
X12084129Y23961774D01*
X12137482Y23832966D01*
X12137484Y23832963D01*
X12222356Y23722356D01*
X12332963Y23637484D01*
X12332966Y23637482D01*
X12461774Y23584128D01*
X12571997Y23569617D01*
X12636924Y23540894D01*
X12644645Y23533791D01*
X12694295Y23484142D01*
X12728320Y23421830D01*
X12731200Y23395046D01*
X12731200Y23031940D01*
X12711198Y22963819D01*
X12705174Y22955252D01*
X12637483Y22867034D01*
X12607411Y22794434D01*
X12584128Y22738225D01*
X12565931Y22600000D01*
X12565931Y22599999D01*
X12584129Y22461774D01*
X12637482Y22332966D01*
X12637484Y22332963D01*
X12722356Y22222356D01*
X12832963Y22137484D01*
X12832966Y22137482D01*
X12908420Y22106228D01*
X12961773Y22084129D01*
X13100000Y22065931D01*
X13238227Y22084129D01*
X13367035Y22137483D01*
X13477644Y22222356D01*
X13562517Y22332965D01*
X13615871Y22461773D01*
X13634069Y22600000D01*
X13615871Y22738227D01*
X13562517Y22867034D01*
X13494835Y22955238D01*
X13469237Y23021457D01*
X13468800Y23031940D01*
X13468800Y23648551D01*
X13468800Y23648553D01*
X13443667Y23742351D01*
X13443667Y23742352D01*
X13395113Y23826449D01*
X13166207Y24055353D01*
X13132184Y24117663D01*
X13130384Y24127987D01*
X13115871Y24238227D01*
X13062517Y24367034D01*
X12977644Y24477644D01*
X12867035Y24562517D01*
X12738227Y24615871D01*
X12600000Y24634069D01*
X12461773Y24615871D01*
X12332966Y24562517D01*
X12332960Y24562512D01*
X12332959Y24562512D01*
X12222355Y24477644D01*
X12137487Y24367040D01*
X12137485Y24367037D01*
X12137483Y24367034D01*
X12093120Y24259933D01*
X12084128Y24238225D01*
X12065931Y24100000D01*
X8226013Y24100000D01*
X8332877Y24259933D01*
X8408860Y24443371D01*
X8408862Y24443376D01*
X8416824Y24483400D01*
X7599660Y24483400D01*
X7623805Y24497340D01*
X7679660Y24553195D01*
X7719156Y24621604D01*
X7739600Y24697904D01*
X7739600Y24776896D01*
X7719156Y24853196D01*
X7679660Y24921605D01*
X7623805Y24977460D01*
X7599660Y24991400D01*
X8416823Y24991400D01*
X8408862Y25031423D01*
X8408860Y25031428D01*
X8332877Y25214866D01*
X8222567Y25379957D01*
X8222562Y25379964D01*
X8082164Y25520362D01*
X8082157Y25520367D01*
X7917066Y25630677D01*
X7733628Y25706660D01*
X7733623Y25706662D01*
X7538881Y25745399D01*
X7538878Y25745400D01*
X7033345Y25745400D01*
X6965224Y25765402D01*
X6918731Y25819058D01*
X6908627Y25889332D01*
X6924225Y25934399D01*
X6929606Y25943719D01*
X6929608Y25943722D01*
X6969100Y26091107D01*
X6969100Y26243693D01*
X6929608Y26391078D01*
X6853315Y26523221D01*
X6745421Y26631115D01*
X6613278Y26707408D01*
X6465893Y26746900D01*
X6313307Y26746900D01*
X6165922Y26707408D01*
X6033779Y26631115D01*
X6033777Y26631113D01*
X6033772Y26631109D01*
X5925890Y26523227D01*
X5925882Y26523217D01*
X5849594Y26391082D01*
X5849592Y26391078D01*
X5810100Y26243693D01*
X5810100Y26091107D01*
X5849592Y25943722D01*
X5849593Y25943719D01*
X5926030Y25811326D01*
X5942767Y25742331D01*
X5919546Y25675239D01*
X5867486Y25633797D01*
X5867594Y25633597D01*
X5866500Y25633012D01*
X5865123Y25631916D01*
X5862132Y25630677D01*
X5697042Y25520367D01*
X5697035Y25520362D01*
X5556637Y25379964D01*
X5556632Y25379957D01*
X5446322Y25214866D01*
X5370339Y25031428D01*
X5370337Y25031423D01*
X5362376Y24991400D01*
X4086823Y24991400D01*
X4078862Y25031423D01*
X4078860Y25031428D01*
X4002877Y25214866D01*
X3892567Y25379957D01*
X3892562Y25379964D01*
X3752164Y25520362D01*
X3752157Y25520367D01*
X3587066Y25630677D01*
X3403628Y25706660D01*
X3403623Y25706662D01*
X3208881Y25745399D01*
X3208878Y25745400D01*
X2963600Y25745400D01*
X2963600Y25037400D01*
X2455600Y25037400D01*
X2455600Y25745400D01*
X2210322Y25745400D01*
X2210318Y25745399D01*
X2015576Y25706662D01*
X2015571Y25706660D01*
X1832133Y25630677D01*
X1667042Y25520367D01*
X1667035Y25520362D01*
X1526637Y25379964D01*
X1526632Y25379957D01*
X1416322Y25214866D01*
X1340339Y25031428D01*
X1340337Y25031423D01*
X1332376Y24991400D01*
X500500Y24991400D01*
X500500Y29792000D01*
X8000331Y29792000D01*
X8000331Y29791999D01*
X8018529Y29653774D01*
X8071882Y29524966D01*
X8071884Y29524963D01*
X8156761Y29414349D01*
X8162595Y29408516D01*
X8161087Y29407008D01*
X8196273Y29358819D01*
X8203700Y29316198D01*
X8203700Y29201001D01*
X8183698Y29132880D01*
X8161991Y29109289D01*
X8162596Y29108685D01*
X8156758Y29102847D01*
X8071887Y28992240D01*
X8071885Y28992237D01*
X8071883Y28992234D01*
X8026341Y28882288D01*
X8018528Y28863425D01*
X8000331Y28725200D01*
X8000331Y28725199D01*
X8018529Y28586974D01*
X8071882Y28458166D01*
X8071884Y28458163D01*
X8156756Y28347556D01*
X8267363Y28262684D01*
X8267366Y28262682D01*
X8342820Y28231428D01*
X8396173Y28209329D01*
X8534400Y28191131D01*
X8672627Y28209329D01*
X8801435Y28262683D01*
X8912044Y28347556D01*
X8996917Y28458165D01*
X9050271Y28586973D01*
X9068469Y28725200D01*
X9050271Y28863427D01*
X8996917Y28992234D01*
X8912044Y29102844D01*
X8912042Y29102845D01*
X8912041Y29102847D01*
X8906205Y29108684D01*
X8907714Y29110193D01*
X8872534Y29158363D01*
X8865100Y29201001D01*
X8865100Y29316198D01*
X8885102Y29384319D01*
X8906807Y29407913D01*
X8906205Y29408516D01*
X8912038Y29414349D01*
X8912042Y29414354D01*
X8912044Y29414356D01*
X8996917Y29524965D01*
X9050271Y29653773D01*
X9068469Y29792000D01*
X9050271Y29930227D01*
X8996917Y30059034D01*
X8912044Y30169644D01*
X8801435Y30254517D01*
X8672627Y30307871D01*
X8534400Y30326069D01*
X8396173Y30307871D01*
X8267366Y30254517D01*
X8267360Y30254512D01*
X8267359Y30254512D01*
X8156755Y30169644D01*
X8071887Y30059040D01*
X8071885Y30059037D01*
X8071883Y30059034D01*
X8034576Y29968968D01*
X8018528Y29930225D01*
X8000331Y29792000D01*
X500500Y29792000D01*
X500500Y31250000D01*
X10865931Y31250000D01*
X10884129Y31111773D01*
X10904840Y31061773D01*
X10937482Y30982966D01*
X10937484Y30982963D01*
X11022356Y30872356D01*
X11132963Y30787484D01*
X11132966Y30787482D01*
X11208420Y30756228D01*
X11261773Y30734129D01*
X11400000Y30715931D01*
X11538227Y30734129D01*
X11667035Y30787483D01*
X11777644Y30872356D01*
X11778478Y30872996D01*
X11844699Y30898596D01*
X11914248Y30884331D01*
X11955143Y30849739D01*
X11976154Y30822357D01*
X12086763Y30737484D01*
X12086766Y30737482D01*
X12215574Y30684128D01*
X12353800Y30665931D01*
X12353802Y30665931D01*
X12402113Y30672291D01*
X12472262Y30661351D01*
X12507654Y30636465D01*
X12689372Y30454747D01*
X12689374Y30454745D01*
X12720160Y30423958D01*
X12750946Y30393172D01*
X12826349Y30349638D01*
X12826357Y30349635D01*
X12910462Y30327100D01*
X12910463Y30327100D01*
X12997537Y30327100D01*
X14029508Y30327100D01*
X14097629Y30307098D01*
X14106204Y30301067D01*
X14154229Y30264217D01*
X14210963Y30220684D01*
X14210966Y30220682D01*
X14285663Y30189742D01*
X14339773Y30167329D01*
X14478000Y30149131D01*
X14616227Y30167329D01*
X14745035Y30220683D01*
X14855644Y30305556D01*
X14940517Y30416165D01*
X14993871Y30544973D01*
X15012069Y30683200D01*
X14993871Y30821427D01*
X14940517Y30950234D01*
X14855644Y31060844D01*
X14745035Y31145717D01*
X14616227Y31199071D01*
X14478000Y31217269D01*
X14339773Y31199071D01*
X14339768Y31199069D01*
X14249115Y31161519D01*
X14178525Y31153929D01*
X14115038Y31185708D01*
X14078810Y31246766D01*
X14075976Y31261470D01*
X14065871Y31338227D01*
X14012517Y31467034D01*
X13927644Y31577644D01*
X13817035Y31662517D01*
X13696899Y31712278D01*
X13641622Y31756824D01*
X13619200Y31824187D01*
X13636758Y31892978D01*
X13688719Y31941357D01*
X13696897Y31945092D01*
X13703631Y31947881D01*
X13703632Y31947882D01*
X13703635Y31947883D01*
X13814244Y32032756D01*
X13899117Y32143365D01*
X13952471Y32272173D01*
X13970669Y32410400D01*
X13952471Y32548627D01*
X13899117Y32677434D01*
X13814244Y32788044D01*
X13814242Y32788045D01*
X13814241Y32788047D01*
X13808405Y32793884D01*
X13809914Y32795393D01*
X13774734Y32843563D01*
X13769191Y32875354D01*
X29334563Y32875354D01*
X29334563Y32875352D01*
X29347200Y32867412D01*
X29347201Y32867411D01*
X29519062Y32807273D01*
X29519070Y32807272D01*
X29700000Y32786887D01*
X29880929Y32807272D01*
X29880937Y32807273D01*
X30052799Y32867411D01*
X30065435Y32875352D01*
X30065436Y32875353D01*
X30065435Y32875354D01*
X30734563Y32875354D01*
X30734563Y32875352D01*
X30747200Y32867412D01*
X30747201Y32867411D01*
X30919062Y32807273D01*
X30919070Y32807272D01*
X31100000Y32786887D01*
X31280929Y32807272D01*
X31280937Y32807273D01*
X31452799Y32867411D01*
X31465435Y32875352D01*
X31465436Y32875353D01*
X31100000Y33240790D01*
X31099999Y33240790D01*
X30734563Y32875354D01*
X30065435Y32875354D01*
X29700000Y33240790D01*
X29699999Y33240790D01*
X29334563Y32875354D01*
X13769191Y32875354D01*
X13767300Y32886201D01*
X13767300Y33575354D01*
X28634563Y33575354D01*
X28634563Y33575352D01*
X28647200Y33567412D01*
X28647201Y33567411D01*
X28825744Y33504936D01*
X28824818Y33502291D01*
X28875712Y33473782D01*
X28902422Y33424864D01*
X28904936Y33425744D01*
X28967411Y33247201D01*
X28967412Y33247200D01*
X28975352Y33234563D01*
X28975354Y33234563D01*
X29340790Y33599999D01*
X29340790Y33600001D01*
X29310954Y33629837D01*
X29550000Y33629837D01*
X29550000Y33570163D01*
X29572836Y33515032D01*
X29615032Y33472836D01*
X29670163Y33450000D01*
X29729837Y33450000D01*
X29784968Y33472836D01*
X29827164Y33515032D01*
X29850000Y33570163D01*
X29850000Y33600001D01*
X30059210Y33600001D01*
X30059210Y33599999D01*
X30399999Y33259210D01*
X30400001Y33259210D01*
X30728290Y33587499D01*
X30728290Y33587501D01*
X30685954Y33629837D01*
X30950000Y33629837D01*
X30950000Y33570163D01*
X30972836Y33515032D01*
X31015032Y33472836D01*
X31070163Y33450000D01*
X31129837Y33450000D01*
X31184968Y33472836D01*
X31227164Y33515032D01*
X31250000Y33570163D01*
X31250000Y33600001D01*
X31459210Y33600001D01*
X31459210Y33599999D01*
X31824646Y33234562D01*
X31824646Y33234563D01*
X31832587Y33247199D01*
X31832591Y33247208D01*
X31895064Y33425743D01*
X31897720Y33424813D01*
X31926161Y33475657D01*
X31975137Y33502416D01*
X31974256Y33504936D01*
X32152799Y33567411D01*
X32165435Y33575352D01*
X32165436Y33575353D01*
X31800000Y33940790D01*
X31799999Y33940790D01*
X31459210Y33600001D01*
X31250000Y33600001D01*
X31250000Y33629837D01*
X31227164Y33684968D01*
X31184968Y33727164D01*
X31129837Y33750000D01*
X31070163Y33750000D01*
X31015032Y33727164D01*
X30972836Y33684968D01*
X30950000Y33629837D01*
X30685954Y33629837D01*
X30387501Y33928290D01*
X30387499Y33928290D01*
X30059210Y33600001D01*
X29850000Y33600001D01*
X29850000Y33629837D01*
X29827164Y33684968D01*
X29784968Y33727164D01*
X29729837Y33750000D01*
X29670163Y33750000D01*
X29615032Y33727164D01*
X29572836Y33684968D01*
X29550000Y33629837D01*
X29310954Y33629837D01*
X29000001Y33940790D01*
X28999999Y33940790D01*
X28634563Y33575354D01*
X13767300Y33575354D01*
X13767300Y34300000D01*
X28186887Y34300000D01*
X28207272Y34119070D01*
X28207273Y34119062D01*
X28267411Y33947201D01*
X28267412Y33947200D01*
X28275352Y33934563D01*
X28275354Y33934563D01*
X28640790Y34299999D01*
X28610952Y34329837D01*
X28850000Y34329837D01*
X28850000Y34270163D01*
X28872836Y34215032D01*
X28915032Y34172836D01*
X28970163Y34150000D01*
X29029837Y34150000D01*
X29084968Y34172836D01*
X29127164Y34215032D01*
X29150000Y34270163D01*
X29150000Y34300001D01*
X29359210Y34300001D01*
X29359210Y34299999D01*
X29687499Y33971710D01*
X29687501Y33971710D01*
X30015790Y34299999D01*
X30015790Y34300001D01*
X29985954Y34329837D01*
X30225000Y34329837D01*
X30225000Y34270163D01*
X30247836Y34215032D01*
X30290032Y34172836D01*
X30345163Y34150000D01*
X30404837Y34150000D01*
X30459968Y34172836D01*
X30502164Y34215032D01*
X30525000Y34270163D01*
X30525000Y34300001D01*
X30759210Y34300001D01*
X30759210Y34299999D01*
X31099999Y33959210D01*
X31100001Y33959210D01*
X31440790Y34299999D01*
X31440790Y34300001D01*
X31410954Y34329837D01*
X31650000Y34329837D01*
X31650000Y34270163D01*
X31672836Y34215032D01*
X31715032Y34172836D01*
X31770163Y34150000D01*
X31829837Y34150000D01*
X31884968Y34172836D01*
X31927164Y34215032D01*
X31950000Y34270163D01*
X31950000Y34300001D01*
X32159210Y34300001D01*
X32159210Y34299999D01*
X32524646Y33934562D01*
X32524646Y33934563D01*
X32532587Y33947199D01*
X32532591Y33947208D01*
X32592725Y34119059D01*
X32592727Y34119070D01*
X32613112Y34300000D01*
X32592727Y34480929D01*
X32592726Y34480937D01*
X32532590Y34652791D01*
X32532585Y34652801D01*
X32524645Y34665436D01*
X32159210Y34300001D01*
X31950000Y34300001D01*
X31950000Y34329837D01*
X31927164Y34384968D01*
X31884968Y34427164D01*
X31829837Y34450000D01*
X31770163Y34450000D01*
X31715032Y34427164D01*
X31672836Y34384968D01*
X31650000Y34329837D01*
X31410954Y34329837D01*
X31100001Y34640790D01*
X31099999Y34640790D01*
X30759210Y34300001D01*
X30525000Y34300001D01*
X30525000Y34329837D01*
X30502164Y34384968D01*
X30459968Y34427164D01*
X30404837Y34450000D01*
X30345163Y34450000D01*
X30290032Y34427164D01*
X30247836Y34384968D01*
X30225000Y34329837D01*
X29985954Y34329837D01*
X29687501Y34628290D01*
X29687499Y34628290D01*
X29359210Y34300001D01*
X29150000Y34300001D01*
X29150000Y34329837D01*
X29127164Y34384968D01*
X29084968Y34427164D01*
X29029837Y34450000D01*
X28970163Y34450000D01*
X28915032Y34427164D01*
X28872836Y34384968D01*
X28850000Y34329837D01*
X28610952Y34329837D01*
X28275353Y34665436D01*
X28275352Y34665435D01*
X28267411Y34652799D01*
X28207273Y34480937D01*
X28207272Y34480929D01*
X28186887Y34300000D01*
X13767300Y34300000D01*
X13767300Y35000001D01*
X28659210Y35000001D01*
X28659210Y34999999D01*
X28999999Y34659210D01*
X29000001Y34659210D01*
X29340790Y34999999D01*
X29340790Y35000001D01*
X29310954Y35029837D01*
X29550000Y35029837D01*
X29550000Y34970163D01*
X29572836Y34915032D01*
X29615032Y34872836D01*
X29670163Y34850000D01*
X29729837Y34850000D01*
X29784968Y34872836D01*
X29827164Y34915032D01*
X29850000Y34970163D01*
X29850000Y35000001D01*
X30059210Y35000001D01*
X30059210Y34999999D01*
X30387499Y34671710D01*
X30387501Y34671710D01*
X30715790Y34999999D01*
X30715790Y35000001D01*
X30685954Y35029837D01*
X30950000Y35029837D01*
X30950000Y34970163D01*
X30972836Y34915032D01*
X31015032Y34872836D01*
X31070163Y34850000D01*
X31129837Y34850000D01*
X31184968Y34872836D01*
X31227164Y34915032D01*
X31250000Y34970163D01*
X31250000Y35000001D01*
X31459210Y35000001D01*
X31459210Y34999999D01*
X31799999Y34659210D01*
X31800001Y34659210D01*
X32140790Y34999999D01*
X32140790Y35000001D01*
X31800001Y35340790D01*
X31799999Y35340790D01*
X31459210Y35000001D01*
X31250000Y35000001D01*
X31250000Y35029837D01*
X31227164Y35084968D01*
X31184968Y35127164D01*
X31129837Y35150000D01*
X31070163Y35150000D01*
X31015032Y35127164D01*
X30972836Y35084968D01*
X30950000Y35029837D01*
X30685954Y35029837D01*
X30387501Y35328290D01*
X30387499Y35328290D01*
X30059210Y35000001D01*
X29850000Y35000001D01*
X29850000Y35029837D01*
X29827164Y35084968D01*
X29784968Y35127164D01*
X29729837Y35150000D01*
X29670163Y35150000D01*
X29615032Y35127164D01*
X29572836Y35084968D01*
X29550000Y35029837D01*
X29310954Y35029837D01*
X29000001Y35340790D01*
X28999999Y35340790D01*
X28659210Y35000001D01*
X13767300Y35000001D01*
X13767300Y35700000D01*
X28186887Y35700000D01*
X28207272Y35519070D01*
X28207273Y35519062D01*
X28267411Y35347201D01*
X28267412Y35347200D01*
X28275352Y35334563D01*
X28275354Y35334563D01*
X28640790Y35699999D01*
X28610952Y35729837D01*
X28850000Y35729837D01*
X28850000Y35670163D01*
X28872836Y35615032D01*
X28915032Y35572836D01*
X28970163Y35550000D01*
X29029837Y35550000D01*
X29084968Y35572836D01*
X29127164Y35615032D01*
X29150000Y35670163D01*
X29150000Y35700001D01*
X29359210Y35700001D01*
X29359210Y35699999D01*
X29687499Y35371710D01*
X29687501Y35371710D01*
X30015790Y35699999D01*
X30015790Y35700001D01*
X29985954Y35729837D01*
X30225000Y35729837D01*
X30225000Y35670163D01*
X30247836Y35615032D01*
X30290032Y35572836D01*
X30345163Y35550000D01*
X30404837Y35550000D01*
X30459968Y35572836D01*
X30502164Y35615032D01*
X30525000Y35670163D01*
X30525000Y35700001D01*
X30759210Y35700001D01*
X30759210Y35699999D01*
X31099999Y35359210D01*
X31100001Y35359210D01*
X31440790Y35699999D01*
X31440790Y35700001D01*
X31410954Y35729837D01*
X31650000Y35729837D01*
X31650000Y35670163D01*
X31672836Y35615032D01*
X31715032Y35572836D01*
X31770163Y35550000D01*
X31829837Y35550000D01*
X31884968Y35572836D01*
X31927164Y35615032D01*
X31950000Y35670163D01*
X31950000Y35700001D01*
X32159210Y35700001D01*
X32159210Y35699999D01*
X32524646Y35334562D01*
X32524646Y35334563D01*
X32532587Y35347199D01*
X32532591Y35347208D01*
X32592725Y35519059D01*
X32592727Y35519070D01*
X32613112Y35700000D01*
X32592727Y35880929D01*
X32592726Y35880937D01*
X32532590Y36052791D01*
X32532585Y36052801D01*
X32524645Y36065436D01*
X32159210Y35700001D01*
X31950000Y35700001D01*
X31950000Y35729837D01*
X31927164Y35784968D01*
X31884968Y35827164D01*
X31829837Y35850000D01*
X31770163Y35850000D01*
X31715032Y35827164D01*
X31672836Y35784968D01*
X31650000Y35729837D01*
X31410954Y35729837D01*
X31100001Y36040790D01*
X31099999Y36040790D01*
X30759210Y35700001D01*
X30525000Y35700001D01*
X30525000Y35729837D01*
X30502164Y35784968D01*
X30459968Y35827164D01*
X30404837Y35850000D01*
X30345163Y35850000D01*
X30290032Y35827164D01*
X30247836Y35784968D01*
X30225000Y35729837D01*
X29985954Y35729837D01*
X29687501Y36028290D01*
X29687499Y36028290D01*
X29359210Y35700001D01*
X29150000Y35700001D01*
X29150000Y35729837D01*
X29127164Y35784968D01*
X29084968Y35827164D01*
X29029837Y35850000D01*
X28970163Y35850000D01*
X28915032Y35827164D01*
X28872836Y35784968D01*
X28850000Y35729837D01*
X28610952Y35729837D01*
X28275353Y36065436D01*
X28275352Y36065435D01*
X28267411Y36052799D01*
X28207273Y35880937D01*
X28207272Y35880929D01*
X28186887Y35700000D01*
X13767300Y35700000D01*
X13767300Y36424646D01*
X28634562Y36424646D01*
X29000000Y36059210D01*
X29000001Y36059210D01*
X29340790Y36399999D01*
X29310952Y36429837D01*
X29550000Y36429837D01*
X29550000Y36370163D01*
X29572836Y36315032D01*
X29615032Y36272836D01*
X29670163Y36250000D01*
X29729837Y36250000D01*
X29784968Y36272836D01*
X29827164Y36315032D01*
X29850000Y36370163D01*
X29850000Y36400001D01*
X30059210Y36400001D01*
X30059210Y36399999D01*
X30387499Y36071710D01*
X30387501Y36071710D01*
X30728290Y36412499D01*
X30728290Y36412501D01*
X30710954Y36429837D01*
X30950000Y36429837D01*
X30950000Y36370163D01*
X30972836Y36315032D01*
X31015032Y36272836D01*
X31070163Y36250000D01*
X31129837Y36250000D01*
X31184968Y36272836D01*
X31227164Y36315032D01*
X31250000Y36370163D01*
X31250000Y36400001D01*
X31459210Y36400001D01*
X31459210Y36399999D01*
X31799999Y36059210D01*
X31800001Y36059210D01*
X32165436Y36424645D01*
X32152801Y36432585D01*
X32152791Y36432590D01*
X31974256Y36495064D01*
X31975186Y36497723D01*
X31924354Y36526148D01*
X31897600Y36575143D01*
X31895064Y36574256D01*
X31832590Y36752791D01*
X31832585Y36752801D01*
X31824645Y36765436D01*
X31459210Y36400001D01*
X31250000Y36400001D01*
X31250000Y36429837D01*
X31227164Y36484968D01*
X31184968Y36527164D01*
X31129837Y36550000D01*
X31070163Y36550000D01*
X31015032Y36527164D01*
X30972836Y36484968D01*
X30950000Y36429837D01*
X30710954Y36429837D01*
X30400001Y36740790D01*
X30399999Y36740790D01*
X30059210Y36400001D01*
X29850000Y36400001D01*
X29850000Y36429837D01*
X29827164Y36484968D01*
X29784968Y36527164D01*
X29729837Y36550000D01*
X29670163Y36550000D01*
X29615032Y36527164D01*
X29572836Y36484968D01*
X29550000Y36429837D01*
X29310952Y36429837D01*
X28975353Y36765436D01*
X28975352Y36765435D01*
X28967411Y36752799D01*
X28904936Y36574256D01*
X28902289Y36575182D01*
X28873795Y36524299D01*
X28824858Y36497592D01*
X28825743Y36495064D01*
X28647208Y36432591D01*
X28647199Y36432587D01*
X28634563Y36424646D01*
X28634562Y36424646D01*
X13767300Y36424646D01*
X13767300Y37124646D01*
X29334562Y37124646D01*
X29700000Y36759210D01*
X29700001Y36759210D01*
X30065436Y37124645D01*
X30065434Y37124646D01*
X30734562Y37124646D01*
X31100000Y36759210D01*
X31100001Y36759210D01*
X31465436Y37124645D01*
X31452801Y37132585D01*
X31452791Y37132590D01*
X31280937Y37192726D01*
X31280929Y37192727D01*
X31100000Y37213112D01*
X30919070Y37192727D01*
X30919059Y37192725D01*
X30747208Y37132591D01*
X30747199Y37132587D01*
X30734563Y37124646D01*
X30734562Y37124646D01*
X30065434Y37124646D01*
X30052801Y37132585D01*
X30052791Y37132590D01*
X29880937Y37192726D01*
X29880929Y37192727D01*
X29700000Y37213112D01*
X29519070Y37192727D01*
X29519059Y37192725D01*
X29347208Y37132591D01*
X29347199Y37132587D01*
X29334563Y37124646D01*
X29334562Y37124646D01*
X13767300Y37124646D01*
X13767300Y37379708D01*
X13787302Y37447829D01*
X13816596Y37479670D01*
X13839641Y37497353D01*
X13839642Y37497354D01*
X13839644Y37497356D01*
X13924517Y37607965D01*
X13977871Y37736773D01*
X13996069Y37875000D01*
X13977871Y38013227D01*
X13924517Y38142034D01*
X13839644Y38252644D01*
X13729035Y38337517D01*
X13600227Y38390871D01*
X13462000Y38409069D01*
X13323773Y38390871D01*
X13194966Y38337517D01*
X13194960Y38337512D01*
X13194959Y38337512D01*
X13084355Y38252644D01*
X12999487Y38142040D01*
X12999485Y38142037D01*
X12999483Y38142034D01*
X12953941Y38032088D01*
X12946128Y38013225D01*
X12927931Y37875000D01*
X12927931Y37874999D01*
X12946129Y37736774D01*
X12999482Y37607966D01*
X12999487Y37607958D01*
X13079863Y37503210D01*
X13105463Y37436990D01*
X13105900Y37426507D01*
X13105900Y32886201D01*
X13085898Y32818080D01*
X13064191Y32794489D01*
X13064796Y32793885D01*
X13058958Y32788047D01*
X12974087Y32677440D01*
X12974085Y32677437D01*
X12974083Y32677434D01*
X12939702Y32594432D01*
X12920728Y32548625D01*
X12902531Y32410400D01*
X12902531Y32410399D01*
X12920729Y32272172D01*
X12927876Y32254919D01*
X12935466Y32184330D01*
X12903688Y32120842D01*
X12842630Y32084614D01*
X12811468Y32080700D01*
X11818753Y32080700D01*
X11734645Y32058164D01*
X11734640Y32058161D01*
X11659236Y32014627D01*
X11593275Y31948666D01*
X11593254Y31948643D01*
X11463272Y31818661D01*
X11400960Y31784635D01*
X11390634Y31782836D01*
X11261773Y31765871D01*
X11132966Y31712517D01*
X11132960Y31712512D01*
X11132959Y31712512D01*
X11022355Y31627644D01*
X10937487Y31517040D01*
X10937485Y31517037D01*
X10937483Y31517034D01*
X10906494Y31442220D01*
X10884128Y31388225D01*
X10871671Y31293601D01*
X10865931Y31250000D01*
X500500Y31250000D01*
X500500Y33631400D01*
X1332376Y33631400D01*
X2149540Y33631400D01*
X2125395Y33617460D01*
X2069540Y33561605D01*
X2030044Y33493196D01*
X2009600Y33416896D01*
X2009600Y33337904D01*
X2030044Y33261604D01*
X2069540Y33193195D01*
X2125395Y33137340D01*
X2149540Y33123400D01*
X1332376Y33123400D01*
X1340337Y33083376D01*
X1340339Y33083371D01*
X1416322Y32899933D01*
X1526632Y32734842D01*
X1526637Y32734835D01*
X1667035Y32594437D01*
X1667042Y32594432D01*
X1832133Y32484122D01*
X2015571Y32408139D01*
X2015576Y32408137D01*
X2210318Y32369400D01*
X2455600Y32369400D01*
X2455600Y33077400D01*
X2963600Y33077400D01*
X2963600Y32369400D01*
X3208881Y32369400D01*
X3403623Y32408137D01*
X3403628Y32408139D01*
X3587066Y32484122D01*
X3752157Y32594432D01*
X3752164Y32594437D01*
X3892562Y32734835D01*
X3892567Y32734842D01*
X4002877Y32899933D01*
X4078860Y33083371D01*
X4078862Y33083376D01*
X4086824Y33123400D01*
X3269660Y33123400D01*
X3293805Y33137340D01*
X3349660Y33193195D01*
X3389156Y33261604D01*
X3409600Y33337904D01*
X3409600Y33416896D01*
X3389156Y33493196D01*
X3349660Y33561605D01*
X3293805Y33617460D01*
X3269660Y33631400D01*
X4086823Y33631400D01*
X5362376Y33631400D01*
X6179540Y33631400D01*
X6155395Y33617460D01*
X6099540Y33561605D01*
X6060044Y33493196D01*
X6039600Y33416896D01*
X6039600Y33337904D01*
X6060044Y33261604D01*
X6099540Y33193195D01*
X6155395Y33137340D01*
X6179540Y33123400D01*
X5362376Y33123400D01*
X5370337Y33083376D01*
X5370339Y33083371D01*
X5446322Y32899933D01*
X5556632Y32734842D01*
X5556637Y32734835D01*
X5697035Y32594437D01*
X5697042Y32594432D01*
X5862133Y32484121D01*
X5862139Y32484118D01*
X5865134Y32482878D01*
X5866460Y32481808D01*
X5867594Y32481203D01*
X5867479Y32480988D01*
X5920413Y32438327D01*
X5942830Y32370963D01*
X5926030Y32303473D01*
X5849593Y32171080D01*
X5849592Y32171078D01*
X5810100Y32023693D01*
X5810100Y31871107D01*
X5840722Y31756824D01*
X5849592Y31723722D01*
X5849594Y31723717D01*
X5925882Y31591582D01*
X5925890Y31591572D01*
X6033772Y31483690D01*
X6033782Y31483682D01*
X6165917Y31407394D01*
X6165922Y31407392D01*
X6313307Y31367900D01*
X6313310Y31367900D01*
X6465890Y31367900D01*
X6465893Y31367900D01*
X6613278Y31407392D01*
X6613280Y31407393D01*
X6613282Y31407394D01*
X6745417Y31483682D01*
X6745427Y31483690D01*
X6853309Y31591572D01*
X6853317Y31591582D01*
X6929605Y31723717D01*
X6929608Y31723722D01*
X6969100Y31871107D01*
X6969100Y32023693D01*
X6929608Y32171078D01*
X6924224Y32180402D01*
X6907488Y32249397D01*
X6930709Y32316488D01*
X6986517Y32360375D01*
X7033345Y32369400D01*
X7538881Y32369400D01*
X7733623Y32408137D01*
X7733628Y32408139D01*
X7917066Y32484122D01*
X8082157Y32594432D01*
X8082164Y32594437D01*
X8222562Y32734835D01*
X8222567Y32734842D01*
X8332877Y32899933D01*
X8408860Y33083371D01*
X8408862Y33083376D01*
X8416824Y33123400D01*
X7599660Y33123400D01*
X7623805Y33137340D01*
X7679660Y33193195D01*
X7719156Y33261604D01*
X7739600Y33337904D01*
X7739600Y33416896D01*
X7719156Y33493196D01*
X7679660Y33561605D01*
X7623805Y33617460D01*
X7599660Y33631400D01*
X8416823Y33631400D01*
X8408862Y33671423D01*
X8408860Y33671428D01*
X8332877Y33854866D01*
X8222567Y34019957D01*
X8222562Y34019964D01*
X8082164Y34160362D01*
X8082157Y34160367D01*
X7917066Y34270677D01*
X7733628Y34346660D01*
X7733623Y34346662D01*
X7538881Y34385399D01*
X7538878Y34385400D01*
X7143600Y34385400D01*
X7143600Y33677400D01*
X6635600Y33677400D01*
X6635600Y34385400D01*
X6240322Y34385400D01*
X6240318Y34385399D01*
X6045576Y34346662D01*
X6045571Y34346660D01*
X5862133Y34270677D01*
X5697042Y34160367D01*
X5697035Y34160362D01*
X5556637Y34019964D01*
X5556632Y34019957D01*
X5446322Y33854866D01*
X5370339Y33671428D01*
X5370337Y33671423D01*
X5362376Y33631400D01*
X4086823Y33631400D01*
X4078862Y33671423D01*
X4078860Y33671428D01*
X4002877Y33854866D01*
X3892567Y34019957D01*
X3892562Y34019964D01*
X3752164Y34160362D01*
X3752157Y34160367D01*
X3587066Y34270677D01*
X3403628Y34346660D01*
X3403623Y34346662D01*
X3208881Y34385399D01*
X3208878Y34385400D01*
X2963600Y34385400D01*
X2963600Y33677400D01*
X2455600Y33677400D01*
X2455600Y34385400D01*
X2210322Y34385400D01*
X2210318Y34385399D01*
X2015576Y34346662D01*
X2015571Y34346660D01*
X1832133Y34270677D01*
X1667042Y34160367D01*
X1667035Y34160362D01*
X1526637Y34019964D01*
X1526632Y34019957D01*
X1416322Y33854866D01*
X1340339Y33671428D01*
X1340337Y33671423D01*
X1332376Y33631400D01*
X500500Y33631400D01*
X500500Y35200000D01*
X7565931Y35200000D01*
X7584129Y35061773D01*
X7597357Y35029837D01*
X7637482Y34932966D01*
X7637484Y34932963D01*
X7722356Y34822356D01*
X7832963Y34737484D01*
X7832966Y34737482D01*
X7908420Y34706228D01*
X7961773Y34684129D01*
X8100000Y34665931D01*
X8238227Y34684129D01*
X8367035Y34737483D01*
X8477644Y34822356D01*
X8477647Y34822360D01*
X8483480Y34828193D01*
X8484987Y34826685D01*
X8533176Y34861871D01*
X8575801Y34869300D01*
X11682135Y34869300D01*
X11682136Y34869300D01*
X11766244Y34891836D01*
X11766245Y34891836D01*
X11774222Y34893974D01*
X11774521Y34892857D01*
X11830662Y34900248D01*
X11867998Y34895333D01*
X11868000Y34895333D01*
X12006227Y34913531D01*
X12135035Y34966885D01*
X12245644Y35051758D01*
X12330517Y35162367D01*
X12383871Y35291175D01*
X12402069Y35429402D01*
X12383871Y35567629D01*
X12330517Y35696436D01*
X12245644Y35807046D01*
X12135035Y35891919D01*
X12006227Y35945273D01*
X11868000Y35963471D01*
X11729773Y35945273D01*
X11600966Y35891919D01*
X11600960Y35891914D01*
X11600959Y35891914D01*
X11490355Y35807046D01*
X11405487Y35696442D01*
X11405485Y35696438D01*
X11405483Y35696436D01*
X11405481Y35696433D01*
X11405480Y35696430D01*
X11369050Y35608481D01*
X11324502Y35553200D01*
X11257138Y35530780D01*
X11252642Y35530700D01*
X8575801Y35530700D01*
X8507680Y35550702D01*
X8484083Y35572410D01*
X8483480Y35571807D01*
X8477650Y35577635D01*
X8477644Y35577644D01*
X8367035Y35662517D01*
X8238227Y35715871D01*
X8100000Y35734069D01*
X7961773Y35715871D01*
X7832966Y35662517D01*
X7832960Y35662512D01*
X7832959Y35662512D01*
X7722355Y35577644D01*
X7637487Y35467040D01*
X7637485Y35467037D01*
X7637483Y35467034D01*
X7621895Y35429401D01*
X7584128Y35338225D01*
X7577934Y35291175D01*
X7565931Y35200000D01*
X500500Y35200000D01*
X500500Y39996911D01*
X500652Y40003093D01*
X517047Y40336828D01*
X518259Y40349134D01*
X566834Y40676602D01*
X569242Y40688709D01*
X649684Y41009852D01*
X653268Y41021669D01*
X764804Y41333390D01*
X769526Y41344788D01*
X774175Y41354616D01*
X911071Y41644058D01*
X916900Y41654963D01*
X1087091Y41938911D01*
X1093961Y41949192D01*
X1291162Y42215086D01*
X1299006Y42224644D01*
X1439039Y42379147D01*
X1521328Y42469939D01*
X1530060Y42478671D01*
X1704480Y42636756D01*
X1775355Y42700993D01*
X1784913Y42708837D01*
X2050807Y42906038D01*
X2061088Y42912908D01*
X2345036Y43083099D01*
X2355941Y43088928D01*
X2655211Y43230473D01*
X2666620Y43235198D01*
X2978317Y43346726D01*
X2990148Y43350315D01*
X3311277Y43430754D01*
X3323405Y43433166D01*
X3650865Y43481740D01*
X3663170Y43482952D01*
X3996906Y43499348D01*
X4003089Y43499500D01*
X4065892Y43499500D01*
X44798652Y43499500D01*
X44866773Y43479498D01*
G37*
%TD.AperFunction*%
%TD*%
M02*
