%TF.GenerationSoftware,KiCad,Pcbnew,8.0.8*%
%TF.CreationDate,2025-02-03T14:39:09+00:00*%
%TF.ProjectId,stepper_monitor,73746570-7065-4725-9f6d-6f6e69746f72,rev?*%
%TF.SameCoordinates,Original*%
%TF.FileFunction,Legend,Bot*%
%TF.FilePolarity,Positive*%
%FSLAX46Y46*%
G04 Gerber Fmt 4.6, Leading zero omitted, Abs format (unit mm)*
G04 Created by KiCad (PCBNEW 8.0.8) date 2025-02-03 14:39:09*
%MOMM*%
%LPD*%
G01*
G04 APERTURE LIST*
G04 Aperture macros list*
%AMRoundRect*
0 Rectangle with rounded corners*
0 $1 Rounding radius*
0 $2 $3 $4 $5 $6 $7 $8 $9 X,Y pos of 4 corners*
0 Add a 4 corners polygon primitive as box body*
4,1,4,$2,$3,$4,$5,$6,$7,$8,$9,$2,$3,0*
0 Add four circle primitives for the rounded corners*
1,1,$1+$1,$2,$3*
1,1,$1+$1,$4,$5*
1,1,$1+$1,$6,$7*
1,1,$1+$1,$8,$9*
0 Add four rect primitives between the rounded corners*
20,1,$1+$1,$2,$3,$4,$5,0*
20,1,$1+$1,$4,$5,$6,$7,0*
20,1,$1+$1,$6,$7,$8,$9,0*
20,1,$1+$1,$8,$9,$2,$3,0*%
G04 Aperture macros list end*
%ADD10C,0.120000*%
%ADD11C,0.155000*%
%ADD12C,0.650000*%
%ADD13O,2.100000X1.000000*%
%ADD14O,1.800000X1.000000*%
%ADD15RoundRect,0.250000X-0.725000X0.600000X-0.725000X-0.600000X0.725000X-0.600000X0.725000X0.600000X0*%
%ADD16O,1.950000X1.700000*%
%ADD17C,0.800000*%
%ADD18C,6.400000*%
%ADD19RoundRect,0.250000X-0.750000X0.600000X-0.750000X-0.600000X0.750000X-0.600000X0.750000X0.600000X0*%
%ADD20O,2.000000X1.700000*%
G04 APERTURE END LIST*
D10*
X16000000Y7000000D02*
X24000000Y7000000D01*
X24000000Y-1000000D01*
X16000000Y-1000000D01*
X16000000Y7000000D01*
G36*
X16000000Y7000000D02*
G01*
X24000000Y7000000D01*
X24000000Y-1000000D01*
X16000000Y-1000000D01*
X16000000Y7000000D01*
G37*
D11*
X47454250Y11152381D02*
X47454250Y11485714D01*
X46930440Y11628571D02*
X46930440Y11152381D01*
X46930440Y11152381D02*
X47930440Y11152381D01*
X47930440Y11152381D02*
X47930440Y11628571D01*
X46978060Y12009524D02*
X46930440Y12152381D01*
X46930440Y12152381D02*
X46930440Y12390476D01*
X46930440Y12390476D02*
X46978060Y12485714D01*
X46978060Y12485714D02*
X47025679Y12533333D01*
X47025679Y12533333D02*
X47120917Y12580952D01*
X47120917Y12580952D02*
X47216155Y12580952D01*
X47216155Y12580952D02*
X47311393Y12533333D01*
X47311393Y12533333D02*
X47359012Y12485714D01*
X47359012Y12485714D02*
X47406631Y12390476D01*
X47406631Y12390476D02*
X47454250Y12200000D01*
X47454250Y12200000D02*
X47501869Y12104762D01*
X47501869Y12104762D02*
X47549488Y12057143D01*
X47549488Y12057143D02*
X47644726Y12009524D01*
X47644726Y12009524D02*
X47739964Y12009524D01*
X47739964Y12009524D02*
X47835202Y12057143D01*
X47835202Y12057143D02*
X47882821Y12104762D01*
X47882821Y12104762D02*
X47930440Y12200000D01*
X47930440Y12200000D02*
X47930440Y12438095D01*
X47930440Y12438095D02*
X47882821Y12580952D01*
X46930440Y13009524D02*
X47930440Y13009524D01*
X47930440Y13009524D02*
X47930440Y13390476D01*
X47930440Y13390476D02*
X47882821Y13485714D01*
X47882821Y13485714D02*
X47835202Y13533333D01*
X47835202Y13533333D02*
X47739964Y13580952D01*
X47739964Y13580952D02*
X47597107Y13580952D01*
X47597107Y13580952D02*
X47501869Y13533333D01*
X47501869Y13533333D02*
X47454250Y13485714D01*
X47454250Y13485714D02*
X47406631Y13390476D01*
X47406631Y13390476D02*
X47406631Y13009524D01*
X47930440Y13914286D02*
X47930440Y14533333D01*
X47930440Y14533333D02*
X47549488Y14200000D01*
X47549488Y14200000D02*
X47549488Y14342857D01*
X47549488Y14342857D02*
X47501869Y14438095D01*
X47501869Y14438095D02*
X47454250Y14485714D01*
X47454250Y14485714D02*
X47359012Y14533333D01*
X47359012Y14533333D02*
X47120917Y14533333D01*
X47120917Y14533333D02*
X47025679Y14485714D01*
X47025679Y14485714D02*
X46978060Y14438095D01*
X46978060Y14438095D02*
X46930440Y14342857D01*
X46930440Y14342857D02*
X46930440Y14057143D01*
X46930440Y14057143D02*
X46978060Y13961905D01*
X46978060Y13961905D02*
X47025679Y13914286D01*
X47835202Y14914286D02*
X47882821Y14961905D01*
X47882821Y14961905D02*
X47930440Y15057143D01*
X47930440Y15057143D02*
X47930440Y15295238D01*
X47930440Y15295238D02*
X47882821Y15390476D01*
X47882821Y15390476D02*
X47835202Y15438095D01*
X47835202Y15438095D02*
X47739964Y15485714D01*
X47739964Y15485714D02*
X47644726Y15485714D01*
X47644726Y15485714D02*
X47501869Y15438095D01*
X47501869Y15438095D02*
X46930440Y14866667D01*
X46930440Y14866667D02*
X46930440Y15485714D01*
X46978060Y15961905D02*
X46930440Y15961905D01*
X46930440Y15961905D02*
X46835202Y15914286D01*
X46835202Y15914286D02*
X46787583Y15866667D01*
X47930440Y16580952D02*
X47930440Y16771428D01*
X47930440Y16771428D02*
X47882821Y16866666D01*
X47882821Y16866666D02*
X47787583Y16961904D01*
X47787583Y16961904D02*
X47597107Y17009523D01*
X47597107Y17009523D02*
X47263774Y17009523D01*
X47263774Y17009523D02*
X47073298Y16961904D01*
X47073298Y16961904D02*
X46978060Y16866666D01*
X46978060Y16866666D02*
X46930440Y16771428D01*
X46930440Y16771428D02*
X46930440Y16580952D01*
X46930440Y16580952D02*
X46978060Y16485714D01*
X46978060Y16485714D02*
X47073298Y16390476D01*
X47073298Y16390476D02*
X47263774Y16342857D01*
X47263774Y16342857D02*
X47597107Y16342857D01*
X47597107Y16342857D02*
X47787583Y16390476D01*
X47787583Y16390476D02*
X47882821Y16485714D01*
X47882821Y16485714D02*
X47930440Y16580952D01*
X46978060Y17390476D02*
X46930440Y17533333D01*
X46930440Y17533333D02*
X46930440Y17771428D01*
X46930440Y17771428D02*
X46978060Y17866666D01*
X46978060Y17866666D02*
X47025679Y17914285D01*
X47025679Y17914285D02*
X47120917Y17961904D01*
X47120917Y17961904D02*
X47216155Y17961904D01*
X47216155Y17961904D02*
X47311393Y17914285D01*
X47311393Y17914285D02*
X47359012Y17866666D01*
X47359012Y17866666D02*
X47406631Y17771428D01*
X47406631Y17771428D02*
X47454250Y17580952D01*
X47454250Y17580952D02*
X47501869Y17485714D01*
X47501869Y17485714D02*
X47549488Y17438095D01*
X47549488Y17438095D02*
X47644726Y17390476D01*
X47644726Y17390476D02*
X47739964Y17390476D01*
X47739964Y17390476D02*
X47835202Y17438095D01*
X47835202Y17438095D02*
X47882821Y17485714D01*
X47882821Y17485714D02*
X47930440Y17580952D01*
X47930440Y17580952D02*
X47930440Y17819047D01*
X47930440Y17819047D02*
X47882821Y17961904D01*
X46930440Y18390476D02*
X47930440Y18390476D01*
X47454250Y18390476D02*
X47454250Y18961904D01*
X46930440Y18961904D02*
X47930440Y18961904D01*
X46978060Y19485714D02*
X46930440Y19485714D01*
X46930440Y19485714D02*
X46835202Y19438095D01*
X46835202Y19438095D02*
X46787583Y19390476D01*
X47597107Y20342856D02*
X46787583Y20342856D01*
X46787583Y20342856D02*
X46692345Y20295237D01*
X46692345Y20295237D02*
X46644726Y20247618D01*
X46644726Y20247618D02*
X46597107Y20152380D01*
X46597107Y20152380D02*
X46597107Y20009523D01*
X46597107Y20009523D02*
X46644726Y19914285D01*
X46978060Y20342856D02*
X46930440Y20247618D01*
X46930440Y20247618D02*
X46930440Y20057142D01*
X46930440Y20057142D02*
X46978060Y19961904D01*
X46978060Y19961904D02*
X47025679Y19914285D01*
X47025679Y19914285D02*
X47120917Y19866666D01*
X47120917Y19866666D02*
X47406631Y19866666D01*
X47406631Y19866666D02*
X47501869Y19914285D01*
X47501869Y19914285D02*
X47549488Y19961904D01*
X47549488Y19961904D02*
X47597107Y20057142D01*
X47597107Y20057142D02*
X47597107Y20247618D01*
X47597107Y20247618D02*
X47549488Y20342856D01*
X46930440Y20819047D02*
X47597107Y20819047D01*
X47930440Y20819047D02*
X47882821Y20771428D01*
X47882821Y20771428D02*
X47835202Y20819047D01*
X47835202Y20819047D02*
X47882821Y20866666D01*
X47882821Y20866666D02*
X47930440Y20819047D01*
X47930440Y20819047D02*
X47835202Y20819047D01*
X47597107Y21152380D02*
X47597107Y21533332D01*
X47930440Y21295237D02*
X47073298Y21295237D01*
X47073298Y21295237D02*
X46978060Y21342856D01*
X46978060Y21342856D02*
X46930440Y21438094D01*
X46930440Y21438094D02*
X46930440Y21533332D01*
X46930440Y21866666D02*
X47930440Y21866666D01*
X46930440Y22295237D02*
X47454250Y22295237D01*
X47454250Y22295237D02*
X47549488Y22247618D01*
X47549488Y22247618D02*
X47597107Y22152380D01*
X47597107Y22152380D02*
X47597107Y22009523D01*
X47597107Y22009523D02*
X47549488Y21914285D01*
X47549488Y21914285D02*
X47501869Y21866666D01*
X47597107Y23199999D02*
X46930440Y23199999D01*
X47597107Y22771428D02*
X47073298Y22771428D01*
X47073298Y22771428D02*
X46978060Y22819047D01*
X46978060Y22819047D02*
X46930440Y22914285D01*
X46930440Y22914285D02*
X46930440Y23057142D01*
X46930440Y23057142D02*
X46978060Y23152380D01*
X46978060Y23152380D02*
X47025679Y23199999D01*
X46930440Y23676190D02*
X47930440Y23676190D01*
X47549488Y23676190D02*
X47597107Y23771428D01*
X47597107Y23771428D02*
X47597107Y23961904D01*
X47597107Y23961904D02*
X47549488Y24057142D01*
X47549488Y24057142D02*
X47501869Y24104761D01*
X47501869Y24104761D02*
X47406631Y24152380D01*
X47406631Y24152380D02*
X47120917Y24152380D01*
X47120917Y24152380D02*
X47025679Y24104761D01*
X47025679Y24104761D02*
X46978060Y24057142D01*
X46978060Y24057142D02*
X46930440Y23961904D01*
X46930440Y23961904D02*
X46930440Y23771428D01*
X46930440Y23771428D02*
X46978060Y23676190D01*
X47978060Y25295237D02*
X46692345Y24438095D01*
X47597107Y25533333D02*
X47597107Y26057142D01*
X47597107Y26057142D02*
X46930440Y25533333D01*
X46930440Y25533333D02*
X46930440Y26057142D01*
X46930440Y26866666D02*
X47454250Y26866666D01*
X47454250Y26866666D02*
X47549488Y26819047D01*
X47549488Y26819047D02*
X47597107Y26723809D01*
X47597107Y26723809D02*
X47597107Y26533333D01*
X47597107Y26533333D02*
X47549488Y26438095D01*
X46978060Y26866666D02*
X46930440Y26771428D01*
X46930440Y26771428D02*
X46930440Y26533333D01*
X46930440Y26533333D02*
X46978060Y26438095D01*
X46978060Y26438095D02*
X47073298Y26390476D01*
X47073298Y26390476D02*
X47168536Y26390476D01*
X47168536Y26390476D02*
X47263774Y26438095D01*
X47263774Y26438095D02*
X47311393Y26533333D01*
X47311393Y26533333D02*
X47311393Y26771428D01*
X47311393Y26771428D02*
X47359012Y26866666D01*
X47597107Y27342857D02*
X46597107Y27342857D01*
X47549488Y27342857D02*
X47597107Y27438095D01*
X47597107Y27438095D02*
X47597107Y27628571D01*
X47597107Y27628571D02*
X47549488Y27723809D01*
X47549488Y27723809D02*
X47501869Y27771428D01*
X47501869Y27771428D02*
X47406631Y27819047D01*
X47406631Y27819047D02*
X47120917Y27819047D01*
X47120917Y27819047D02*
X47025679Y27771428D01*
X47025679Y27771428D02*
X46978060Y27723809D01*
X46978060Y27723809D02*
X46930440Y27628571D01*
X46930440Y27628571D02*
X46930440Y27438095D01*
X46930440Y27438095D02*
X46978060Y27342857D01*
X47597107Y28104762D02*
X47597107Y28485714D01*
X47930440Y28247619D02*
X47073298Y28247619D01*
X47073298Y28247619D02*
X46978060Y28295238D01*
X46978060Y28295238D02*
X46930440Y28390476D01*
X46930440Y28390476D02*
X46930440Y28485714D01*
X46930440Y29247619D02*
X47454250Y29247619D01*
X47454250Y29247619D02*
X47549488Y29200000D01*
X47549488Y29200000D02*
X47597107Y29104762D01*
X47597107Y29104762D02*
X47597107Y28914286D01*
X47597107Y28914286D02*
X47549488Y28819048D01*
X46978060Y29247619D02*
X46930440Y29152381D01*
X46930440Y29152381D02*
X46930440Y28914286D01*
X46930440Y28914286D02*
X46978060Y28819048D01*
X46978060Y28819048D02*
X47073298Y28771429D01*
X47073298Y28771429D02*
X47168536Y28771429D01*
X47168536Y28771429D02*
X47263774Y28819048D01*
X47263774Y28819048D02*
X47311393Y28914286D01*
X47311393Y28914286D02*
X47311393Y29152381D01*
X47311393Y29152381D02*
X47359012Y29247619D01*
%LPC*%
D12*
%TO.C,J4*%
X6389600Y31947400D03*
X6389600Y26167400D03*
D13*
X6889600Y33377400D03*
D14*
X2709600Y33377400D03*
D13*
X6889600Y24737400D03*
D14*
X2709600Y24737400D03*
%TD*%
D15*
%TO.C,J1*%
X26500000Y9500000D03*
D16*
X26500000Y7000000D03*
X26500000Y4500000D03*
X26500000Y2000000D03*
%TD*%
D17*
%TO.C,H3*%
X43600000Y40000000D03*
X44302944Y41697056D03*
X44302944Y38302944D03*
X46000000Y42400000D03*
D18*
X46000000Y40000000D03*
D17*
X46000000Y37600000D03*
X47697056Y41697056D03*
X47697056Y38302944D03*
X48400000Y40000000D03*
%TD*%
D19*
%TO.C,J3*%
X4000000Y10000000D03*
D20*
X4000000Y7500000D03*
%TD*%
D17*
%TO.C,H4*%
X43600000Y1000000D03*
X44302944Y2697056D03*
X44302944Y-697056D03*
X46000000Y3400000D03*
D18*
X46000000Y1000000D03*
D17*
X46000000Y-1400000D03*
X47697056Y2697056D03*
X47697056Y-697056D03*
X48400000Y1000000D03*
%TD*%
%TO.C,H2*%
X1600000Y1000000D03*
X2302944Y2697056D03*
X2302944Y-697056D03*
X4000000Y3400000D03*
D18*
X4000000Y1000000D03*
D17*
X4000000Y-1400000D03*
X5697056Y2697056D03*
X5697056Y-697056D03*
X6400000Y1000000D03*
%TD*%
D15*
%TO.C,J2*%
X38500000Y9500000D03*
D16*
X38500000Y7000000D03*
X38500000Y4500000D03*
X38500000Y2000000D03*
%TD*%
%LPD*%
M02*
