%TF.GenerationSoftware,KiCad,Pcbnew,8.0.8*%
%TF.CreationDate,2025-02-03T14:39:09+00:00*%
%TF.ProjectId,stepper_monitor,73746570-7065-4725-9f6d-6f6e69746f72,rev?*%
%TF.SameCoordinates,Original*%
%TF.FileFunction,Legend,Top*%
%TF.FilePolarity,Positive*%
%FSLAX46Y46*%
G04 Gerber Fmt 4.6, Leading zero omitted, Abs format (unit mm)*
G04 Created by KiCad (PCBNEW 8.0.8) date 2025-02-03 14:39:09*
%MOMM*%
%LPD*%
G01*
G04 APERTURE LIST*
G04 Aperture macros list*
%AMRoundRect*
0 Rectangle with rounded corners*
0 $1 Rounding radius*
0 $2 $3 $4 $5 $6 $7 $8 $9 X,Y pos of 4 corners*
0 Add a 4 corners polygon primitive as box body*
4,1,4,$2,$3,$4,$5,$6,$7,$8,$9,$2,$3,0*
0 Add four circle primitives for the rounded corners*
1,1,$1+$1,$2,$3*
1,1,$1+$1,$4,$5*
1,1,$1+$1,$6,$7*
1,1,$1+$1,$8,$9*
0 Add four rect primitives between the rounded corners*
20,1,$1+$1,$2,$3,$4,$5,0*
20,1,$1+$1,$4,$5,$6,$7,0*
20,1,$1+$1,$6,$7,$8,$9,0*
20,1,$1+$1,$8,$9,$2,$3,0*%
G04 Aperture macros list end*
%ADD10C,0.203200*%
%ADD11C,0.160000*%
%ADD12C,0.155000*%
%ADD13C,0.240000*%
%ADD14C,0.120000*%
%ADD15C,0.170000*%
%ADD16C,0.300000*%
%ADD17C,0.000000*%
%ADD18C,0.100000*%
%ADD19C,0.150000*%
%ADD20RoundRect,0.140000X-0.140000X-0.170000X0.140000X-0.170000X0.140000X0.170000X-0.140000X0.170000X0*%
%ADD21RoundRect,0.225000X0.225000X0.250000X-0.225000X0.250000X-0.225000X-0.250000X0.225000X-0.250000X0*%
%ADD22RoundRect,0.140000X0.140000X0.170000X-0.140000X0.170000X-0.140000X-0.170000X0.140000X-0.170000X0*%
%ADD23RoundRect,0.140000X0.170000X-0.140000X0.170000X0.140000X-0.170000X0.140000X-0.170000X-0.140000X0*%
%ADD24RoundRect,0.140000X-0.170000X0.140000X-0.170000X-0.140000X0.170000X-0.140000X0.170000X0.140000X0*%
%ADD25RoundRect,0.135000X-0.185000X0.135000X-0.185000X-0.135000X0.185000X-0.135000X0.185000X0.135000X0*%
%ADD26RoundRect,0.135000X-0.135000X-0.185000X0.135000X-0.185000X0.135000X0.185000X-0.135000X0.185000X0*%
%ADD27RoundRect,0.070000X-0.380000X0.070000X-0.380000X-0.070000X0.380000X-0.070000X0.380000X0.070000X0*%
%ADD28RoundRect,0.070000X-0.070000X0.380000X-0.070000X-0.380000X0.070000X-0.380000X0.070000X0.380000X0*%
%ADD29R,3.200000X3.200000*%
%ADD30C,0.650000*%
%ADD31R,1.150000X0.300000*%
%ADD32R,1.150000X0.600000*%
%ADD33O,2.100000X1.000000*%
%ADD34O,1.800000X1.000000*%
%ADD35RoundRect,0.150000X0.825000X-0.150000X0.825000X0.150000X-0.825000X0.150000X-0.825000X-0.150000X0*%
%ADD36RoundRect,0.250000X-0.725000X0.600000X-0.725000X-0.600000X0.725000X-0.600000X0.725000X0.600000X0*%
%ADD37O,1.950000X1.700000*%
%ADD38RoundRect,0.225000X-0.250000X0.225000X-0.250000X-0.225000X0.250000X-0.225000X0.250000X0.225000X0*%
%ADD39R,1.200000X0.900000*%
%ADD40R,1.500000X0.900000*%
%ADD41R,0.900000X1.500000*%
%ADD42C,0.600000*%
%ADD43R,3.800000X3.800000*%
%ADD44RoundRect,0.135000X0.135000X0.185000X-0.135000X0.185000X-0.135000X-0.185000X0.135000X-0.185000X0*%
%ADD45R,1.500000X2.000000*%
%ADD46R,3.800000X2.000000*%
%ADD47RoundRect,0.150000X-0.512500X-0.150000X0.512500X-0.150000X0.512500X0.150000X-0.512500X0.150000X0*%
%ADD48RoundRect,0.225000X-0.225000X-0.250000X0.225000X-0.250000X0.225000X0.250000X-0.225000X0.250000X0*%
%ADD49RoundRect,0.350000X-0.650000X0.350000X-0.650000X-0.350000X0.650000X-0.350000X0.650000X0.350000X0*%
%ADD50RoundRect,0.135000X0.185000X-0.135000X0.185000X0.135000X-0.185000X0.135000X-0.185000X-0.135000X0*%
%ADD51RoundRect,0.160000X-0.160000X0.222500X-0.160000X-0.222500X0.160000X-0.222500X0.160000X0.222500X0*%
%ADD52R,0.650000X0.400000*%
%ADD53C,0.800000*%
%ADD54C,6.400000*%
%ADD55RoundRect,0.250000X-0.750000X0.600000X-0.750000X-0.600000X0.750000X-0.600000X0.750000X0.600000X0*%
%ADD56O,2.000000X1.700000*%
%ADD57R,2.700000X0.800000*%
%ADD58RoundRect,0.200000X0.275000X-0.200000X0.275000X0.200000X-0.275000X0.200000X-0.275000X-0.200000X0*%
%ADD59RoundRect,0.200000X-0.275000X0.200000X-0.275000X-0.200000X0.275000X-0.200000X0.275000X0.200000X0*%
%ADD60R,0.740000X2.400000*%
G04 APERTURE END LIST*
D10*
X516190Y3906850D02*
X1483810Y3906850D01*
X1000000Y3423040D02*
X1000000Y4390659D01*
D11*
X21299439Y38989975D02*
X20199439Y38623308D01*
X20199439Y38623308D02*
X21299439Y38256641D01*
X20199439Y36475689D02*
X20199439Y37104261D01*
X20199439Y36789975D02*
X21299439Y36789975D01*
X21299439Y36789975D02*
X21142296Y36894737D01*
X21142296Y36894737D02*
X21037534Y36999499D01*
X21037534Y36999499D02*
X20985153Y37104261D01*
X20304200Y36004261D02*
X20251820Y35951880D01*
X20251820Y35951880D02*
X20199439Y36004261D01*
X20199439Y36004261D02*
X20251820Y36056642D01*
X20251820Y36056642D02*
X20304200Y36004261D01*
X20304200Y36004261D02*
X20199439Y36004261D01*
X21299439Y34956641D02*
X21299439Y35480451D01*
X21299439Y35480451D02*
X20775629Y35532832D01*
X20775629Y35532832D02*
X20828010Y35480451D01*
X20828010Y35480451D02*
X20880391Y35375689D01*
X20880391Y35375689D02*
X20880391Y35113784D01*
X20880391Y35113784D02*
X20828010Y35009022D01*
X20828010Y35009022D02*
X20775629Y34956641D01*
X20775629Y34956641D02*
X20670867Y34904260D01*
X20670867Y34904260D02*
X20408962Y34904260D01*
X20408962Y34904260D02*
X20304200Y34956641D01*
X20304200Y34956641D02*
X20251820Y35009022D01*
X20251820Y35009022D02*
X20199439Y35113784D01*
X20199439Y35113784D02*
X20199439Y35375689D01*
X20199439Y35375689D02*
X20251820Y35480451D01*
X20251820Y35480451D02*
X20304200Y35532832D01*
X20304200Y34432832D02*
X20251820Y34380451D01*
X20251820Y34380451D02*
X20199439Y34432832D01*
X20199439Y34432832D02*
X20251820Y34485213D01*
X20251820Y34485213D02*
X20304200Y34432832D01*
X20304200Y34432832D02*
X20199439Y34432832D01*
X21299439Y33699498D02*
X21299439Y33594736D01*
X21299439Y33594736D02*
X21247058Y33489974D01*
X21247058Y33489974D02*
X21194677Y33437593D01*
X21194677Y33437593D02*
X21089915Y33385212D01*
X21089915Y33385212D02*
X20880391Y33332831D01*
X20880391Y33332831D02*
X20618486Y33332831D01*
X20618486Y33332831D02*
X20408962Y33385212D01*
X20408962Y33385212D02*
X20304200Y33437593D01*
X20304200Y33437593D02*
X20251820Y33489974D01*
X20251820Y33489974D02*
X20199439Y33594736D01*
X20199439Y33594736D02*
X20199439Y33699498D01*
X20199439Y33699498D02*
X20251820Y33804260D01*
X20251820Y33804260D02*
X20304200Y33856641D01*
X20304200Y33856641D02*
X20408962Y33909022D01*
X20408962Y33909022D02*
X20618486Y33961403D01*
X20618486Y33961403D02*
X20880391Y33961403D01*
X20880391Y33961403D02*
X21089915Y33909022D01*
X21089915Y33909022D02*
X21194677Y33856641D01*
X21194677Y33856641D02*
X21247058Y33804260D01*
X21247058Y33804260D02*
X21299439Y33699498D01*
D12*
X8045440Y11833332D02*
X8045440Y11166666D01*
X8045440Y11166666D02*
X7045440Y11595237D01*
X7426393Y10785713D02*
X7426393Y10023809D01*
X8045440Y9642856D02*
X8045440Y9023809D01*
X8045440Y9023809D02*
X7664488Y9357142D01*
X7664488Y9357142D02*
X7664488Y9214285D01*
X7664488Y9214285D02*
X7616869Y9119047D01*
X7616869Y9119047D02*
X7569250Y9071428D01*
X7569250Y9071428D02*
X7474012Y9023809D01*
X7474012Y9023809D02*
X7235917Y9023809D01*
X7235917Y9023809D02*
X7140679Y9071428D01*
X7140679Y9071428D02*
X7093060Y9119047D01*
X7093060Y9119047D02*
X7045440Y9214285D01*
X7045440Y9214285D02*
X7045440Y9499999D01*
X7045440Y9499999D02*
X7093060Y9595237D01*
X7093060Y9595237D02*
X7140679Y9642856D01*
X8045440Y8404761D02*
X8045440Y8309523D01*
X8045440Y8309523D02*
X7997821Y8214285D01*
X7997821Y8214285D02*
X7950202Y8166666D01*
X7950202Y8166666D02*
X7854964Y8119047D01*
X7854964Y8119047D02*
X7664488Y8071428D01*
X7664488Y8071428D02*
X7426393Y8071428D01*
X7426393Y8071428D02*
X7235917Y8119047D01*
X7235917Y8119047D02*
X7140679Y8166666D01*
X7140679Y8166666D02*
X7093060Y8214285D01*
X7093060Y8214285D02*
X7045440Y8309523D01*
X7045440Y8309523D02*
X7045440Y8404761D01*
X7045440Y8404761D02*
X7093060Y8499999D01*
X7093060Y8499999D02*
X7140679Y8547618D01*
X7140679Y8547618D02*
X7235917Y8595237D01*
X7235917Y8595237D02*
X7426393Y8642856D01*
X7426393Y8642856D02*
X7664488Y8642856D01*
X7664488Y8642856D02*
X7854964Y8595237D01*
X7854964Y8595237D02*
X7950202Y8547618D01*
X7950202Y8547618D02*
X7997821Y8499999D01*
X7997821Y8499999D02*
X8045440Y8404761D01*
X8045440Y7785713D02*
X7045440Y7452380D01*
X7045440Y7452380D02*
X8045440Y7119047D01*
X7045440Y6785713D02*
X8045440Y6785713D01*
X8045440Y6785713D02*
X8045440Y6547618D01*
X8045440Y6547618D02*
X7997821Y6404761D01*
X7997821Y6404761D02*
X7902583Y6309523D01*
X7902583Y6309523D02*
X7807345Y6261904D01*
X7807345Y6261904D02*
X7616869Y6214285D01*
X7616869Y6214285D02*
X7474012Y6214285D01*
X7474012Y6214285D02*
X7283536Y6261904D01*
X7283536Y6261904D02*
X7188298Y6309523D01*
X7188298Y6309523D02*
X7093060Y6404761D01*
X7093060Y6404761D02*
X7045440Y6547618D01*
X7045440Y6547618D02*
X7045440Y6785713D01*
X7140679Y5214285D02*
X7093060Y5261904D01*
X7093060Y5261904D02*
X7045440Y5404761D01*
X7045440Y5404761D02*
X7045440Y5499999D01*
X7045440Y5499999D02*
X7093060Y5642856D01*
X7093060Y5642856D02*
X7188298Y5738094D01*
X7188298Y5738094D02*
X7283536Y5785713D01*
X7283536Y5785713D02*
X7474012Y5833332D01*
X7474012Y5833332D02*
X7616869Y5833332D01*
X7616869Y5833332D02*
X7807345Y5785713D01*
X7807345Y5785713D02*
X7902583Y5738094D01*
X7902583Y5738094D02*
X7997821Y5642856D01*
X7997821Y5642856D02*
X8045440Y5499999D01*
X8045440Y5499999D02*
X8045440Y5404761D01*
X8045440Y5404761D02*
X7997821Y5261904D01*
X7997821Y5261904D02*
X7950202Y5214285D01*
D13*
X47185402Y33775439D02*
X47118735Y33575439D01*
X47118735Y33575439D02*
X47118735Y33242106D01*
X47118735Y33242106D02*
X47185402Y33108772D01*
X47185402Y33108772D02*
X47252068Y33042106D01*
X47252068Y33042106D02*
X47385402Y32975439D01*
X47385402Y32975439D02*
X47518735Y32975439D01*
X47518735Y32975439D02*
X47652068Y33042106D01*
X47652068Y33042106D02*
X47718735Y33108772D01*
X47718735Y33108772D02*
X47785402Y33242106D01*
X47785402Y33242106D02*
X47852068Y33508772D01*
X47852068Y33508772D02*
X47918735Y33642106D01*
X47918735Y33642106D02*
X47985402Y33708772D01*
X47985402Y33708772D02*
X48118735Y33775439D01*
X48118735Y33775439D02*
X48252068Y33775439D01*
X48252068Y33775439D02*
X48385402Y33708772D01*
X48385402Y33708772D02*
X48452068Y33642106D01*
X48452068Y33642106D02*
X48518735Y33508772D01*
X48518735Y33508772D02*
X48518735Y33175439D01*
X48518735Y33175439D02*
X48452068Y32975439D01*
X48518735Y32575439D02*
X48518735Y31775439D01*
X47118735Y32175439D02*
X48518735Y32175439D01*
X47852068Y31308772D02*
X47852068Y30842106D01*
X47118735Y30642106D02*
X47118735Y31308772D01*
X47118735Y31308772D02*
X48518735Y31308772D01*
X48518735Y31308772D02*
X48518735Y30642106D01*
X47118735Y30042105D02*
X48518735Y30042105D01*
X48518735Y30042105D02*
X48518735Y29508772D01*
X48518735Y29508772D02*
X48452068Y29375439D01*
X48452068Y29375439D02*
X48385402Y29308772D01*
X48385402Y29308772D02*
X48252068Y29242105D01*
X48252068Y29242105D02*
X48052068Y29242105D01*
X48052068Y29242105D02*
X47918735Y29308772D01*
X47918735Y29308772D02*
X47852068Y29375439D01*
X47852068Y29375439D02*
X47785402Y29508772D01*
X47785402Y29508772D02*
X47785402Y30042105D01*
X47118735Y28642105D02*
X48518735Y28642105D01*
X48518735Y28642105D02*
X48518735Y28108772D01*
X48518735Y28108772D02*
X48452068Y27975439D01*
X48452068Y27975439D02*
X48385402Y27908772D01*
X48385402Y27908772D02*
X48252068Y27842105D01*
X48252068Y27842105D02*
X48052068Y27842105D01*
X48052068Y27842105D02*
X47918735Y27908772D01*
X47918735Y27908772D02*
X47852068Y27975439D01*
X47852068Y27975439D02*
X47785402Y28108772D01*
X47785402Y28108772D02*
X47785402Y28642105D01*
X47852068Y27242105D02*
X47852068Y26775439D01*
X47118735Y26575439D02*
X47118735Y27242105D01*
X47118735Y27242105D02*
X48518735Y27242105D01*
X48518735Y27242105D02*
X48518735Y26575439D01*
X47118735Y25175438D02*
X47785402Y25642105D01*
X47118735Y25975438D02*
X48518735Y25975438D01*
X48518735Y25975438D02*
X48518735Y25442105D01*
X48518735Y25442105D02*
X48452068Y25308772D01*
X48452068Y25308772D02*
X48385402Y25242105D01*
X48385402Y25242105D02*
X48252068Y25175438D01*
X48252068Y25175438D02*
X48052068Y25175438D01*
X48052068Y25175438D02*
X47918735Y25242105D01*
X47918735Y25242105D02*
X47852068Y25308772D01*
X47852068Y25308772D02*
X47785402Y25442105D01*
X47785402Y25442105D02*
X47785402Y25975438D01*
X44864813Y33708772D02*
X46264813Y33708772D01*
X46264813Y33708772D02*
X45264813Y33242106D01*
X45264813Y33242106D02*
X46264813Y32775439D01*
X46264813Y32775439D02*
X44864813Y32775439D01*
X46264813Y31842106D02*
X46264813Y31575439D01*
X46264813Y31575439D02*
X46198146Y31442106D01*
X46198146Y31442106D02*
X46064813Y31308772D01*
X46064813Y31308772D02*
X45798146Y31242106D01*
X45798146Y31242106D02*
X45331480Y31242106D01*
X45331480Y31242106D02*
X45064813Y31308772D01*
X45064813Y31308772D02*
X44931480Y31442106D01*
X44931480Y31442106D02*
X44864813Y31575439D01*
X44864813Y31575439D02*
X44864813Y31842106D01*
X44864813Y31842106D02*
X44931480Y31975439D01*
X44931480Y31975439D02*
X45064813Y32108772D01*
X45064813Y32108772D02*
X45331480Y32175439D01*
X45331480Y32175439D02*
X45798146Y32175439D01*
X45798146Y32175439D02*
X46064813Y32108772D01*
X46064813Y32108772D02*
X46198146Y31975439D01*
X46198146Y31975439D02*
X46264813Y31842106D01*
X46264813Y30842105D02*
X46264813Y30042105D01*
X44864813Y30442105D02*
X46264813Y30442105D01*
X46264813Y29308772D02*
X46264813Y29042105D01*
X46264813Y29042105D02*
X46198146Y28908772D01*
X46198146Y28908772D02*
X46064813Y28775438D01*
X46064813Y28775438D02*
X45798146Y28708772D01*
X45798146Y28708772D02*
X45331480Y28708772D01*
X45331480Y28708772D02*
X45064813Y28775438D01*
X45064813Y28775438D02*
X44931480Y28908772D01*
X44931480Y28908772D02*
X44864813Y29042105D01*
X44864813Y29042105D02*
X44864813Y29308772D01*
X44864813Y29308772D02*
X44931480Y29442105D01*
X44931480Y29442105D02*
X45064813Y29575438D01*
X45064813Y29575438D02*
X45331480Y29642105D01*
X45331480Y29642105D02*
X45798146Y29642105D01*
X45798146Y29642105D02*
X46064813Y29575438D01*
X46064813Y29575438D02*
X46198146Y29442105D01*
X46198146Y29442105D02*
X46264813Y29308772D01*
X44864813Y27308771D02*
X45531480Y27775438D01*
X44864813Y28108771D02*
X46264813Y28108771D01*
X46264813Y28108771D02*
X46264813Y27575438D01*
X46264813Y27575438D02*
X46198146Y27442105D01*
X46198146Y27442105D02*
X46131480Y27375438D01*
X46131480Y27375438D02*
X45998146Y27308771D01*
X45998146Y27308771D02*
X45798146Y27308771D01*
X45798146Y27308771D02*
X45664813Y27375438D01*
X45664813Y27375438D02*
X45598146Y27442105D01*
X45598146Y27442105D02*
X45531480Y27575438D01*
X45531480Y27575438D02*
X45531480Y28108771D01*
X43010891Y33775439D02*
X43010891Y33108772D01*
X42610891Y33908772D02*
X44010891Y33442106D01*
X44010891Y33442106D02*
X42610891Y32975439D01*
X42610891Y32508772D02*
X44010891Y32508772D01*
X44010891Y32508772D02*
X42610891Y31708772D01*
X42610891Y31708772D02*
X44010891Y31708772D01*
X43010891Y31108772D02*
X43010891Y30442105D01*
X42610891Y31242105D02*
X44010891Y30775439D01*
X44010891Y30775439D02*
X42610891Y30308772D01*
X42610891Y29175439D02*
X42610891Y29842105D01*
X42610891Y29842105D02*
X44010891Y29842105D01*
X43277558Y28442106D02*
X42610891Y28442106D01*
X44010891Y28908772D02*
X43277558Y28442106D01*
X43277558Y28442106D02*
X44010891Y27975439D01*
X42677558Y27575439D02*
X42610891Y27375439D01*
X42610891Y27375439D02*
X42610891Y27042106D01*
X42610891Y27042106D02*
X42677558Y26908772D01*
X42677558Y26908772D02*
X42744224Y26842106D01*
X42744224Y26842106D02*
X42877558Y26775439D01*
X42877558Y26775439D02*
X43010891Y26775439D01*
X43010891Y26775439D02*
X43144224Y26842106D01*
X43144224Y26842106D02*
X43210891Y26908772D01*
X43210891Y26908772D02*
X43277558Y27042106D01*
X43277558Y27042106D02*
X43344224Y27308772D01*
X43344224Y27308772D02*
X43410891Y27442106D01*
X43410891Y27442106D02*
X43477558Y27508772D01*
X43477558Y27508772D02*
X43610891Y27575439D01*
X43610891Y27575439D02*
X43744224Y27575439D01*
X43744224Y27575439D02*
X43877558Y27508772D01*
X43877558Y27508772D02*
X43944224Y27442106D01*
X43944224Y27442106D02*
X44010891Y27308772D01*
X44010891Y27308772D02*
X44010891Y26975439D01*
X44010891Y26975439D02*
X43944224Y26775439D01*
X43344224Y26175439D02*
X43344224Y25708773D01*
X42610891Y25508773D02*
X42610891Y26175439D01*
X42610891Y26175439D02*
X44010891Y26175439D01*
X44010891Y26175439D02*
X44010891Y25508773D01*
X42610891Y24108772D02*
X43277558Y24575439D01*
X42610891Y24908772D02*
X44010891Y24908772D01*
X44010891Y24908772D02*
X44010891Y24375439D01*
X44010891Y24375439D02*
X43944224Y24242106D01*
X43944224Y24242106D02*
X43877558Y24175439D01*
X43877558Y24175439D02*
X43744224Y24108772D01*
X43744224Y24108772D02*
X43544224Y24108772D01*
X43544224Y24108772D02*
X43410891Y24175439D01*
X43410891Y24175439D02*
X43344224Y24242106D01*
X43344224Y24242106D02*
X43277558Y24375439D01*
X43277558Y24375439D02*
X43277558Y24908772D01*
D10*
X906850Y14183809D02*
X906850Y13216190D01*
D14*
%TO.C,C8*%
X14658164Y13242400D02*
X14873836Y13242400D01*
X14658164Y12522400D02*
X14873836Y12522400D01*
%TO.C,C10*%
X18462580Y12097000D02*
X18181420Y12097000D01*
X18462580Y11077000D02*
X18181420Y11077000D01*
%TO.C,C11*%
X18277436Y13267800D02*
X18061764Y13267800D01*
X18277436Y12547800D02*
X18061764Y12547800D01*
%TO.C,C4*%
X11340000Y23492164D02*
X11340000Y23707836D01*
X12060000Y23492164D02*
X12060000Y23707836D01*
%TO.C,C7*%
X9840000Y23807836D02*
X9840000Y23592164D01*
X10560000Y23807836D02*
X10560000Y23592164D01*
%TO.C,R6*%
X19214200Y15772441D02*
X19214200Y15465159D01*
X19974200Y15772441D02*
X19974200Y15465159D01*
%TO.C,R1*%
X15469600Y38260541D02*
X15469600Y37953259D01*
X16229600Y38260541D02*
X16229600Y37953259D01*
%TO.C,R2*%
X17296400Y38260541D02*
X17296400Y37953259D01*
X16536400Y38260541D02*
X16536400Y37953259D01*
%TO.C,R7*%
X14246359Y24280000D02*
X14553641Y24280000D01*
X14246359Y23520000D02*
X14553641Y23520000D01*
%TO.C,U2*%
X9743800Y25228284D02*
X9743800Y25953284D01*
X10468800Y30448284D02*
X9743800Y30448284D01*
X10468800Y25228284D02*
X9743800Y25228284D01*
X14238800Y30448284D02*
X14963800Y30448284D01*
X14238800Y25228284D02*
X14963800Y25228284D01*
X14963800Y30448284D02*
X14963800Y29723284D01*
X14963800Y25228284D02*
X14963800Y25953284D01*
D15*
X9238800Y29338284D02*
G75*
G02*
X9068800Y29338284I-85000J0D01*
G01*
X9068800Y29338284D02*
G75*
G02*
X9238800Y29338284I85000J0D01*
G01*
D14*
%TO.C,J4*%
X-400Y33637400D02*
X1704600Y33637400D01*
X-400Y24477400D02*
X-400Y33637400D01*
X1704600Y24477400D02*
X-400Y24477400D01*
X3714600Y24477400D02*
X5634600Y24477400D01*
X5634600Y33637400D02*
X3714600Y33637400D01*
%TO.C,R4*%
X8687800Y32843441D02*
X8687800Y32536159D01*
X9447800Y32843441D02*
X9447800Y32536159D01*
%TO.C,R5*%
X8046359Y23580000D02*
X8353641Y23580000D01*
X8046359Y22820000D02*
X8353641Y22820000D01*
%TO.C,C14*%
X35031164Y19788800D02*
X35246836Y19788800D01*
X35031164Y19068800D02*
X35246836Y19068800D01*
%TO.C,U4*%
X35342200Y18661400D02*
X33392200Y18661400D01*
X35342200Y18661400D02*
X37292200Y18661400D01*
X37292200Y13541400D02*
X33392200Y13541400D01*
D16*
X39392200Y14201400D02*
G75*
G02*
X39092200Y14201400I-150000J0D01*
G01*
X39092200Y14201400D02*
G75*
G02*
X39392200Y14201400I150000J0D01*
G01*
D14*
%TO.C,R17*%
X38894800Y21589641D02*
X38894800Y21282359D01*
X39654800Y21589641D02*
X39654800Y21282359D01*
%TO.C,C15*%
X30638800Y18038036D02*
X30638800Y17822364D01*
X31358800Y18038036D02*
X31358800Y17822364D01*
%TO.C,R19*%
X30618800Y15823241D02*
X30618800Y15515959D01*
X31378800Y15823241D02*
X31378800Y15515959D01*
D17*
%TO.C,G\u002A\u002A\u002A*%
G36*
X47590958Y18900499D02*
G01*
X47587376Y17734606D01*
X46628225Y17141665D01*
X46479278Y17049412D01*
X46337412Y16961204D01*
X46204410Y16878171D01*
X46082051Y16801438D01*
X45972117Y16732135D01*
X45876389Y16671389D01*
X45796647Y16620326D01*
X45734672Y16580077D01*
X45692245Y16551766D01*
X45671147Y16536524D01*
X45669074Y16534292D01*
X45680706Y16524862D01*
X45714414Y16501893D01*
X45768417Y16466515D01*
X45840935Y16419853D01*
X45930186Y16363036D01*
X46034390Y16297192D01*
X46151765Y16223447D01*
X46280530Y16142930D01*
X46418904Y16056768D01*
X46565107Y15966088D01*
X46628225Y15927046D01*
X47587376Y15334233D01*
X47590902Y11491265D01*
X47594427Y7648298D01*
X46463724Y7128111D01*
X46294393Y7050215D01*
X46130989Y6975057D01*
X45975489Y6903545D01*
X45829870Y6836588D01*
X45696109Y6775095D01*
X45576184Y6719975D01*
X45472072Y6672136D01*
X45385749Y6632487D01*
X45319192Y6601936D01*
X45274378Y6581393D01*
X45254618Y6572369D01*
X45176215Y6536814D01*
X43994420Y7080929D01*
X42812624Y7625045D01*
X42809103Y12343630D01*
X42808786Y12775670D01*
X42808501Y13180586D01*
X42808253Y13559260D01*
X42808174Y13694564D01*
X43337707Y13694564D01*
X43337707Y11638743D01*
X43738208Y11454212D01*
X44138710Y11269680D01*
X45159432Y11269680D01*
X46180155Y11269680D01*
X46180110Y9907966D01*
X46180065Y8546251D01*
X45686532Y8318690D01*
X45576734Y8268214D01*
X45474765Y8221627D01*
X45383449Y8180198D01*
X45305613Y8145195D01*
X45244081Y8117889D01*
X45201679Y8099547D01*
X45181232Y8091438D01*
X45179958Y8091154D01*
X45164700Y8096847D01*
X45126935Y8113048D01*
X45069548Y8138460D01*
X44995426Y8171783D01*
X44907455Y8211721D01*
X44808521Y8256975D01*
X44701511Y8306246D01*
X44693258Y8310058D01*
X44219600Y8528937D01*
X44223224Y9265709D01*
X44226847Y10002481D01*
X44660915Y10006211D01*
X45094984Y10009942D01*
X45322520Y10448337D01*
X45375344Y10550374D01*
X45423829Y10644525D01*
X45466511Y10727914D01*
X45501929Y10797661D01*
X45528621Y10850889D01*
X45545123Y10884720D01*
X45550055Y10896178D01*
X45536405Y10897658D01*
X45496859Y10899066D01*
X45433527Y10900385D01*
X45348518Y10901597D01*
X45243941Y10902684D01*
X45121905Y10903628D01*
X44984520Y10904410D01*
X44833894Y10905013D01*
X44672136Y10905419D01*
X44501357Y10905610D01*
X44443881Y10905623D01*
X43337707Y10905623D01*
X43337707Y9437844D01*
X43337707Y7970065D01*
X44257550Y7546514D01*
X45177393Y7122963D01*
X45395229Y7222782D01*
X45449936Y7247881D01*
X45526810Y7283195D01*
X45622584Y7327220D01*
X45733990Y7378455D01*
X45857761Y7435395D01*
X45990629Y7496537D01*
X46129326Y7560379D01*
X46270586Y7625417D01*
X46334179Y7654702D01*
X47055292Y7986803D01*
X47058828Y10712455D01*
X47062364Y13438107D01*
X46624760Y13711663D01*
X46187156Y13985220D01*
X46183553Y13082522D01*
X46179950Y12179824D01*
X45900008Y12179824D01*
X45620066Y12179824D01*
X45620066Y12883442D01*
X45620066Y13587060D01*
X45203501Y13847418D01*
X44786935Y14107776D01*
X44783339Y13143800D01*
X44779742Y12179824D01*
X44499794Y12179824D01*
X44219846Y12179824D01*
X44219846Y13697368D01*
X44219846Y15214913D01*
X43791485Y15482649D01*
X43692721Y15544166D01*
X43601296Y15600703D01*
X43519955Y15650594D01*
X43451442Y15692173D01*
X43398502Y15723773D01*
X43363879Y15743729D01*
X43350416Y15750386D01*
X43348762Y15736571D01*
X43347196Y15695872D01*
X43345724Y15629412D01*
X43344354Y15538311D01*
X43343091Y15423690D01*
X43341944Y15286671D01*
X43340919Y15128374D01*
X43340023Y14949921D01*
X43339262Y14752434D01*
X43338645Y14537032D01*
X43338177Y14304838D01*
X43337866Y14056973D01*
X43337719Y13794557D01*
X43337707Y13694564D01*
X42808174Y13694564D01*
X42808046Y13912572D01*
X42807884Y14241404D01*
X42807771Y14546636D01*
X42807710Y14829150D01*
X42807705Y15089827D01*
X42807760Y15329547D01*
X42807880Y15549191D01*
X42808068Y15749641D01*
X42808328Y15931777D01*
X42808664Y16096480D01*
X42809079Y16244632D01*
X42809579Y16377114D01*
X42810166Y16494805D01*
X42810268Y16510413D01*
X43337707Y16510413D01*
X43337707Y16507065D01*
X43338016Y16419432D01*
X43339214Y16355544D01*
X43341710Y16311148D01*
X43345911Y16281987D01*
X43350416Y16269014D01*
X43352224Y16263808D01*
X43361058Y16252355D01*
X43362211Y16251315D01*
X43376692Y16241548D01*
X43413224Y16218050D01*
X43470244Y16181795D01*
X43546193Y16133758D01*
X43639510Y16074916D01*
X43748634Y16006244D01*
X43872005Y15928716D01*
X44008061Y15843309D01*
X44155244Y15750997D01*
X44311991Y15652756D01*
X44476742Y15549562D01*
X44647936Y15442389D01*
X44824014Y15332214D01*
X45003414Y15220011D01*
X45184575Y15106755D01*
X45365938Y14993423D01*
X45545940Y14880990D01*
X45723023Y14770430D01*
X45895625Y14662720D01*
X46062185Y14558834D01*
X46221143Y14459749D01*
X46370938Y14366439D01*
X46510011Y14279879D01*
X46636799Y14201046D01*
X46749742Y14130914D01*
X46847280Y14070458D01*
X46927852Y14020656D01*
X46989898Y13982480D01*
X47031857Y13956908D01*
X47052168Y13944914D01*
X47053856Y13944101D01*
X47055744Y13957595D01*
X47057478Y13996042D01*
X47059008Y14056391D01*
X47060287Y14135590D01*
X47061268Y14230590D01*
X47061902Y14338339D01*
X47062142Y14455785D01*
X47062141Y14472685D01*
X47061989Y15001268D01*
X45850851Y15749586D01*
X45667106Y15863311D01*
X45494625Y15970452D01*
X45334640Y16070226D01*
X45188384Y16161853D01*
X45057087Y16244551D01*
X44941983Y16317536D01*
X44844304Y16380028D01*
X44765280Y16431245D01*
X44706144Y16470404D01*
X44668128Y16496723D01*
X44652464Y16509422D01*
X44652192Y16510384D01*
X44665610Y16519343D01*
X44701242Y16542006D01*
X44757476Y16577369D01*
X44832694Y16624428D01*
X44925283Y16682178D01*
X45033628Y16749614D01*
X45156114Y16825732D01*
X45291126Y16909526D01*
X45437048Y16999994D01*
X45592267Y17096128D01*
X45755166Y17196926D01*
X45859982Y17261736D01*
X47055292Y18000609D01*
X47058961Y18527757D01*
X47059691Y18682652D01*
X47059523Y18810013D01*
X47058449Y18910298D01*
X47056458Y18983963D01*
X47053543Y19031466D01*
X47049692Y19053264D01*
X47048068Y19054906D01*
X47035362Y19047646D01*
X47000473Y19026514D01*
X46944966Y18992485D01*
X46870402Y18946532D01*
X46778345Y18889632D01*
X46670358Y18822756D01*
X46548005Y18746880D01*
X46412849Y18662979D01*
X46266452Y18572025D01*
X46110378Y18474994D01*
X45946190Y18372860D01*
X45775451Y18266597D01*
X45599725Y18157179D01*
X45420574Y18045580D01*
X45239562Y17932775D01*
X45058251Y17819738D01*
X44878206Y17707443D01*
X44700988Y17596865D01*
X44528162Y17488977D01*
X44361291Y17384755D01*
X44201937Y17285171D01*
X44051663Y17191201D01*
X43912034Y17103818D01*
X43784612Y17023998D01*
X43670960Y16952713D01*
X43572642Y16890939D01*
X43491220Y16839650D01*
X43428257Y16799819D01*
X43385318Y16772422D01*
X43371755Y16763631D01*
X43359272Y16754696D01*
X43350288Y16743904D01*
X43344226Y16726921D01*
X43340513Y16699413D01*
X43338571Y16657048D01*
X43337828Y16595493D01*
X43337707Y16510413D01*
X42810268Y16510413D01*
X42810844Y16598588D01*
X42811618Y16689343D01*
X42812492Y16767952D01*
X42813468Y16835295D01*
X42814552Y16892253D01*
X42815747Y16939707D01*
X42817056Y16978539D01*
X42818485Y17009629D01*
X42820036Y17033858D01*
X42821714Y17052107D01*
X42823523Y17065257D01*
X42825466Y17074190D01*
X42827547Y17079785D01*
X42829771Y17082925D01*
X42830107Y17083229D01*
X42844279Y17092652D01*
X42881060Y17116179D01*
X42939300Y17153091D01*
X43017850Y17202666D01*
X43115561Y17264185D01*
X43231282Y17336926D01*
X43363864Y17420169D01*
X43512159Y17513193D01*
X43675015Y17615278D01*
X43851286Y17725702D01*
X44039819Y17843745D01*
X44239467Y17968686D01*
X44449080Y18099805D01*
X44667508Y18236381D01*
X44893602Y18377694D01*
X45126213Y18523022D01*
X45192999Y18564737D01*
X45427333Y18711102D01*
X45655541Y18853648D01*
X45876468Y18991655D01*
X46088963Y19124402D01*
X46291870Y19251168D01*
X46484036Y19371232D01*
X46664307Y19483874D01*
X46831531Y19588371D01*
X46984552Y19684004D01*
X47048068Y19723704D01*
X47122218Y19770051D01*
X47243374Y19845791D01*
X47346868Y19910503D01*
X47431545Y19963467D01*
X47496252Y20003961D01*
X47539835Y20031264D01*
X47561140Y20044655D01*
X47562953Y20045812D01*
X47594539Y20066392D01*
X47590958Y18900499D01*
G37*
D14*
%TO.C,J1*%
X22990000Y12060000D02*
X22990000Y-560000D01*
X22990000Y-560000D02*
X28960000Y-560000D01*
X23750000Y11300000D02*
X23750000Y5750000D01*
X23750000Y200000D02*
X23750000Y5750000D01*
X26700000Y12050000D02*
X26700000Y11300000D01*
X26700000Y11300000D02*
X23750000Y11300000D01*
X26700000Y200000D02*
X23750000Y200000D01*
X26700000Y-550000D02*
X26700000Y200000D01*
X28200000Y12050000D02*
X28200000Y10250000D01*
X28200000Y10250000D02*
X28950000Y10250000D01*
X28200000Y8750000D02*
X28200000Y2750000D01*
X28200000Y2750000D02*
X28950000Y2750000D01*
X28200000Y1250000D02*
X28200000Y-550000D01*
X28200000Y-550000D02*
X28950000Y-550000D01*
X28950000Y12050000D02*
X28200000Y12050000D01*
X28950000Y10250000D02*
X28950000Y12050000D01*
X28950000Y8750000D02*
X28200000Y8750000D01*
X28950000Y2750000D02*
X28950000Y8750000D01*
X28950000Y1250000D02*
X28200000Y1250000D01*
X28950000Y-550000D02*
X28950000Y1250000D01*
X28960000Y12060000D02*
X22990000Y12060000D01*
X28960000Y-560000D02*
X28960000Y12060000D01*
X29250000Y12350000D02*
X28000000Y12350000D01*
X29250000Y11100000D02*
X29250000Y12350000D01*
%TO.C,C12*%
X19390000Y41940580D02*
X19390000Y41659420D01*
X20410000Y41940580D02*
X20410000Y41659420D01*
%TO.C,D6*%
X13565000Y14654200D02*
X13565000Y18554200D01*
X13565000Y14654200D02*
X15565000Y14654200D01*
D18*
X14015000Y16554200D02*
X14015000Y16704200D01*
X14165000Y17154200D02*
X14965000Y17154200D01*
X14565000Y17154200D02*
X14565000Y17654200D01*
X14565000Y16554200D02*
X14015000Y16554200D01*
X14565000Y16554200D02*
X14165000Y17154200D01*
X14565000Y16554200D02*
X15115000Y16554200D01*
X14565000Y16154200D02*
X14565000Y16554200D01*
X14965000Y17154200D02*
X14565000Y16554200D01*
X15115000Y16404200D02*
X15115000Y16554200D01*
D14*
X15565000Y14654200D02*
X15565000Y18554200D01*
%TO.C,U7*%
X22780000Y25370000D02*
X22780000Y24590000D01*
X22780000Y24590000D02*
X23780000Y24590000D01*
X41020000Y25370000D02*
X41020000Y24590000D01*
X41020000Y24590000D02*
X40020000Y24590000D01*
X22775000Y43285000D02*
X22275000Y43285000D01*
X22775000Y43785000D01*
X22775000Y43285000D01*
G36*
X22775000Y43285000D02*
G01*
X22275000Y43285000D01*
X22775000Y43785000D01*
X22775000Y43285000D01*
G37*
%TO.C,C2*%
X7192164Y18960000D02*
X7407836Y18960000D01*
X7192164Y18240000D02*
X7407836Y18240000D01*
%TO.C,R16*%
X18348641Y14278400D02*
X18041359Y14278400D01*
X18348641Y13518400D02*
X18041359Y13518400D01*
%TO.C,U3*%
X13210200Y8180000D02*
X13210200Y4420000D01*
X13210200Y4420000D02*
X14470200Y4420000D01*
X20030200Y10430000D02*
X20030200Y4420000D01*
X20030200Y4420000D02*
X18770200Y4420000D01*
%TO.C,C9*%
X17092600Y41405636D02*
X17092600Y41189964D01*
X17812600Y41405636D02*
X17812600Y41189964D01*
%TO.C,R8*%
X15553641Y21280000D02*
X15246359Y21280000D01*
X15553641Y20520000D02*
X15246359Y20520000D01*
%TO.C,U1*%
X7250000Y17810000D02*
X6450000Y17810000D01*
X7250000Y17810000D02*
X8050000Y17810000D01*
X7250000Y14690000D02*
X6450000Y14690000D01*
X7250000Y14690000D02*
X8050000Y14690000D01*
X5950000Y17760000D02*
X5710000Y18090000D01*
X6190000Y18090000D01*
X5950000Y17760000D01*
G36*
X5950000Y17760000D02*
G01*
X5710000Y18090000D01*
X6190000Y18090000D01*
X5950000Y17760000D01*
G37*
%TO.C,C18*%
X20326400Y18063436D02*
X20326400Y17847764D01*
X21046400Y18063436D02*
X21046400Y17847764D01*
%TO.C,C3*%
X3690000Y18840580D02*
X3690000Y18559420D01*
X4710000Y18840580D02*
X4710000Y18559420D01*
%TO.C,C16*%
X26301636Y20960000D02*
X26085964Y20960000D01*
X26301636Y20240000D02*
X26085964Y20240000D01*
%TO.C,R18*%
X37726400Y21589641D02*
X37726400Y21282359D01*
X38486400Y21589641D02*
X38486400Y21282359D01*
%TO.C,R15*%
X30025800Y22168641D02*
X30025800Y21861359D01*
X30785800Y22168641D02*
X30785800Y21861359D01*
%TO.C,C1*%
X10859420Y15710000D02*
X11140580Y15710000D01*
X10859420Y14690000D02*
X11140580Y14690000D01*
%TO.C,SW1*%
X309600Y39913800D02*
X609600Y39913800D01*
X309600Y35773800D02*
X309600Y39913800D01*
X609600Y35773800D02*
X309600Y35773800D01*
X3149600Y39913800D02*
X3449600Y39913800D01*
X3449600Y39913800D02*
X3449600Y35773800D01*
X3449600Y35773800D02*
X3149600Y35773800D01*
%TO.C,D3*%
X9100000Y13450000D02*
X9100000Y9550000D01*
D18*
X9700000Y10950000D02*
X10100000Y11550000D01*
X10100000Y11950000D02*
X10100000Y11550000D01*
X10100000Y11550000D02*
X9550000Y11550000D01*
X10100000Y11550000D02*
X10500000Y10950000D01*
X10100000Y11550000D02*
X10650000Y11550000D01*
X10100000Y10950000D02*
X10100000Y10450000D01*
X10500000Y10950000D02*
X9700000Y10950000D01*
D14*
X11100000Y13450000D02*
X9100000Y13450000D01*
X11100000Y13450000D02*
X11100000Y9550000D01*
%TO.C,R11*%
X10719800Y32843441D02*
X10719800Y32536159D01*
X11479800Y32843441D02*
X11479800Y32536159D01*
%TO.C,R3*%
X11620000Y12346359D02*
X11620000Y12653641D01*
X12380000Y12346359D02*
X12380000Y12653641D01*
%TO.C,D1*%
D19*
X14883200Y39281500D02*
G75*
G02*
X14733200Y39281500I-75000J0D01*
G01*
X14733200Y39281500D02*
G75*
G02*
X14883200Y39281500I75000J0D01*
G01*
D14*
%TO.C,R12*%
X18190200Y41146359D02*
X18190200Y41453641D01*
X18950200Y41146359D02*
X18950200Y41453641D01*
%TO.C,R14*%
X31245000Y22168641D02*
X31245000Y21861359D01*
X32005000Y22168641D02*
X32005000Y21861359D01*
%TO.C,C13*%
X20840000Y41652164D02*
X20840000Y41867836D01*
X21560000Y41652164D02*
X21560000Y41867836D01*
%TO.C,Q1*%
X12685800Y31656800D02*
X14085800Y31656800D01*
X14085800Y33976800D02*
X12685800Y33976800D01*
D15*
X14570800Y31666800D02*
G75*
G02*
X14400800Y31666800I-85000J0D01*
G01*
X14400800Y31666800D02*
G75*
G02*
X14570800Y31666800I85000J0D01*
G01*
%TO.C,D4*%
D19*
X19669200Y18977800D02*
G75*
G02*
X19519200Y18977800I-75000J0D01*
G01*
X19519200Y18977800D02*
G75*
G02*
X19669200Y18977800I75000J0D01*
G01*
D14*
%TO.C,R9*%
X17753641Y21280000D02*
X17446359Y21280000D01*
X17753641Y20520000D02*
X17446359Y20520000D01*
%TO.C,R20*%
X20306400Y15797841D02*
X20306400Y15490559D01*
X21066400Y15797841D02*
X21066400Y15490559D01*
%TO.C,D2*%
D19*
X18067100Y39285400D02*
G75*
G02*
X17917100Y39285400I-75000J0D01*
G01*
X17917100Y39285400D02*
G75*
G02*
X18067100Y39285400I75000J0D01*
G01*
D14*
%TO.C,J3*%
X490000Y12560000D02*
X490000Y4940000D01*
X490000Y4940000D02*
X6460000Y4940000D01*
X1250000Y11800000D02*
X1250000Y8750000D01*
X1250000Y5700000D02*
X1250000Y8750000D01*
X4200000Y12550000D02*
X4200000Y11800000D01*
X4200000Y11800000D02*
X1250000Y11800000D01*
X4200000Y5700000D02*
X1250000Y5700000D01*
X4200000Y4950000D02*
X4200000Y5700000D01*
X5700000Y12550000D02*
X5700000Y10750000D01*
X5700000Y10750000D02*
X6450000Y10750000D01*
X5700000Y9250000D02*
X5700000Y8250000D01*
X5700000Y8250000D02*
X6450000Y8250000D01*
X5700000Y6750000D02*
X5700000Y4950000D01*
X5700000Y4950000D02*
X6450000Y4950000D01*
X6450000Y12550000D02*
X5700000Y12550000D01*
X6450000Y10750000D02*
X6450000Y12550000D01*
X6450000Y9250000D02*
X5700000Y9250000D01*
X6450000Y8250000D02*
X6450000Y9250000D01*
X6450000Y6750000D02*
X5700000Y6750000D01*
X6450000Y4950000D02*
X6450000Y6750000D01*
X6460000Y12560000D02*
X490000Y12560000D01*
X6460000Y4940000D02*
X6460000Y12560000D01*
X6750000Y12850000D02*
X5500000Y12850000D01*
X6750000Y11600000D02*
X6750000Y12850000D01*
%TO.C,U5*%
X25004400Y18610600D02*
X23054400Y18610600D01*
X25004400Y18610600D02*
X26954400Y18610600D01*
X26954400Y13490600D02*
X23054400Y13490600D01*
D16*
X29054400Y14150600D02*
G75*
G02*
X28754400Y14150600I-150000J0D01*
G01*
X28754400Y14150600D02*
G75*
G02*
X29054400Y14150600I150000J0D01*
G01*
D14*
%TO.C,L1*%
X9440000Y20210000D02*
X9590000Y20210000D01*
X9440000Y16690000D02*
X9440000Y20210000D01*
X9440000Y16690000D02*
X9590000Y16690000D01*
X12960000Y20210000D02*
X12810000Y20210000D01*
X12960000Y16690000D02*
X12810000Y16690000D01*
X12960000Y16690000D02*
X12960000Y20210000D01*
%TO.C,C19*%
X23698364Y20960000D02*
X23914036Y20960000D01*
X23698364Y20240000D02*
X23914036Y20240000D01*
%TO.C,C17*%
X23728164Y19687200D02*
X23943836Y19687200D01*
X23728164Y18967200D02*
X23943836Y18967200D01*
%TO.C,R22*%
X3677500Y15212742D02*
X3677500Y15687258D01*
X4722500Y15212742D02*
X4722500Y15687258D01*
%TO.C,C6*%
X14650820Y12071600D02*
X14931980Y12071600D01*
X14650820Y11051600D02*
X14931980Y11051600D01*
%TO.C,R21*%
X1477500Y17237258D02*
X1477500Y16762742D01*
X2522500Y17237258D02*
X2522500Y16762742D01*
%TO.C,R13*%
X36304000Y21589641D02*
X36304000Y21282359D01*
X37064000Y21589641D02*
X37064000Y21282359D01*
%TO.C,R10*%
X9703800Y32536159D02*
X9703800Y32843441D01*
X10463800Y32536159D02*
X10463800Y32843441D01*
%TO.C,J5*%
X5299400Y40650200D02*
X5299400Y37120200D01*
X5364400Y40650200D02*
X5299400Y40650200D01*
X5364400Y37120200D02*
X5299400Y37120200D01*
X11769400Y40650200D02*
X11704400Y40650200D01*
X11769400Y40650200D02*
X11769400Y37120200D01*
X11769400Y37120200D02*
X11704400Y37120200D01*
%TO.C,D5*%
X16079600Y14654200D02*
X16079600Y18554200D01*
X16079600Y14654200D02*
X18079600Y14654200D01*
D18*
X16529600Y16554200D02*
X16529600Y16704200D01*
X16679600Y17154200D02*
X17479600Y17154200D01*
X17079600Y17154200D02*
X17079600Y17654200D01*
X17079600Y16554200D02*
X16529600Y16554200D01*
X17079600Y16554200D02*
X16679600Y17154200D01*
X17079600Y16554200D02*
X17629600Y16554200D01*
X17079600Y16154200D02*
X17079600Y16554200D01*
X17479600Y17154200D02*
X17079600Y16554200D01*
X17629600Y16404200D02*
X17629600Y16554200D01*
D14*
X18079600Y14654200D02*
X18079600Y18554200D01*
%TO.C,J2*%
X34990000Y12060000D02*
X34990000Y-560000D01*
X34990000Y-560000D02*
X40960000Y-560000D01*
X35750000Y11300000D02*
X35750000Y5750000D01*
X35750000Y200000D02*
X35750000Y5750000D01*
X38700000Y12050000D02*
X38700000Y11300000D01*
X38700000Y11300000D02*
X35750000Y11300000D01*
X38700000Y200000D02*
X35750000Y200000D01*
X38700000Y-550000D02*
X38700000Y200000D01*
X40200000Y12050000D02*
X40200000Y10250000D01*
X40200000Y10250000D02*
X40950000Y10250000D01*
X40200000Y8750000D02*
X40200000Y2750000D01*
X40200000Y2750000D02*
X40950000Y2750000D01*
X40200000Y1250000D02*
X40200000Y-550000D01*
X40200000Y-550000D02*
X40950000Y-550000D01*
X40950000Y12050000D02*
X40200000Y12050000D01*
X40950000Y10250000D02*
X40950000Y12050000D01*
X40950000Y8750000D02*
X40200000Y8750000D01*
X40950000Y2750000D02*
X40950000Y8750000D01*
X40950000Y1250000D02*
X40200000Y1250000D01*
X40950000Y-550000D02*
X40950000Y1250000D01*
X40960000Y12060000D02*
X34990000Y12060000D01*
X40960000Y-560000D02*
X40960000Y12060000D01*
X41250000Y12350000D02*
X40000000Y12350000D01*
X41250000Y11100000D02*
X41250000Y12350000D01*
%TD*%
%LPC*%
D20*
%TO.C,C8*%
X14286000Y12882400D03*
X15246000Y12882400D03*
%TD*%
D21*
%TO.C,C10*%
X19097000Y11587000D03*
X17547000Y11587000D03*
%TD*%
D22*
%TO.C,C11*%
X18649600Y12907800D03*
X17689600Y12907800D03*
%TD*%
D23*
%TO.C,C4*%
X11700000Y23120000D03*
X11700000Y24080000D03*
%TD*%
D24*
%TO.C,C7*%
X10200000Y24180000D03*
X10200000Y23220000D03*
%TD*%
D25*
%TO.C,R6*%
X19594200Y16128800D03*
X19594200Y15108800D03*
%TD*%
%TO.C,R1*%
X15849600Y38616900D03*
X15849600Y37596900D03*
%TD*%
%TO.C,R2*%
X16916400Y37596900D03*
X16916400Y38616900D03*
%TD*%
D26*
%TO.C,R7*%
X13890000Y23900000D03*
X14910000Y23900000D03*
%TD*%
D27*
%TO.C,U2*%
X9853800Y29338284D03*
X9853800Y28838284D03*
X9853800Y28338284D03*
X9853800Y27838284D03*
X9853800Y27338284D03*
X9853800Y26838284D03*
X9853800Y26338284D03*
D28*
X10853800Y25338284D03*
X11353800Y25338284D03*
X11853800Y25338284D03*
X12353800Y25338284D03*
X12853800Y25338284D03*
X13353800Y25338284D03*
X13853800Y25338284D03*
D27*
X14853800Y26338284D03*
X14853800Y26838284D03*
X14853800Y27338284D03*
X14853800Y27838284D03*
X14853800Y28338284D03*
X14853800Y28838284D03*
X14853800Y29338284D03*
D28*
X13853800Y30338284D03*
X13353800Y30338284D03*
X12853800Y30338284D03*
X12353800Y30338284D03*
X11853800Y30338284D03*
X11353800Y30338284D03*
X10853800Y30338284D03*
D29*
X12353800Y27838284D03*
%TD*%
D30*
%TO.C,J4*%
X6389600Y31947400D03*
X6389600Y26167400D03*
D31*
X7454600Y30307400D03*
X7454600Y29307400D03*
X7454600Y28807400D03*
X7454600Y27807400D03*
X7454600Y27307400D03*
X7454600Y28307400D03*
X7454600Y29807400D03*
X7454600Y30807400D03*
D32*
X7454600Y32257400D03*
X7454600Y25857400D03*
D33*
X6889600Y33377400D03*
D34*
X2709600Y33377400D03*
D33*
X6889600Y24737400D03*
D34*
X2709600Y24737400D03*
D32*
X7454600Y31457400D03*
X7454600Y26657400D03*
%TD*%
D25*
%TO.C,R4*%
X9067800Y33199800D03*
X9067800Y32179800D03*
%TD*%
D26*
%TO.C,R5*%
X7690000Y23200000D03*
X8710000Y23200000D03*
%TD*%
D20*
%TO.C,C14*%
X34659000Y19428800D03*
X35619000Y19428800D03*
%TD*%
D35*
%TO.C,U4*%
X37817200Y14196400D03*
X37817200Y15466400D03*
X37817200Y16736400D03*
X37817200Y18006400D03*
X32867200Y18006400D03*
X32867200Y16736400D03*
X32867200Y15466400D03*
X32867200Y14196400D03*
%TD*%
D25*
%TO.C,R17*%
X39274800Y21946000D03*
X39274800Y20926000D03*
%TD*%
D24*
%TO.C,C15*%
X30998800Y18410200D03*
X30998800Y17450200D03*
%TD*%
D25*
%TO.C,R19*%
X30998800Y16179600D03*
X30998800Y15159600D03*
%TD*%
D36*
%TO.C,J1*%
X26500000Y9500000D03*
D37*
X26500000Y7000000D03*
X26500000Y4500000D03*
X26500000Y2000000D03*
%TD*%
D38*
%TO.C,C12*%
X19900000Y42575000D03*
X19900000Y41025000D03*
%TD*%
D39*
%TO.C,D6*%
X14565000Y15254200D03*
X14565000Y18554200D03*
%TD*%
D40*
%TO.C,U7*%
X23150000Y42720000D03*
X23150000Y41450000D03*
X23150000Y40180000D03*
X23150000Y38910000D03*
X23150000Y37640000D03*
X23150000Y36370000D03*
X23150000Y35100000D03*
X23150000Y33830000D03*
X23150000Y32560000D03*
X23150000Y31290000D03*
X23150000Y30020000D03*
X23150000Y28750000D03*
X23150000Y27480000D03*
X23150000Y26210000D03*
D41*
X26190000Y24960000D03*
X27460000Y24960000D03*
X28730000Y24960000D03*
X30000000Y24960000D03*
X31270000Y24960000D03*
X32540000Y24960000D03*
X33810000Y24960000D03*
X35080000Y24960000D03*
X36350000Y24960000D03*
X37620000Y24960000D03*
D40*
X40650000Y26210000D03*
X40650000Y27480000D03*
X40650000Y28750000D03*
X40650000Y30020000D03*
X40650000Y31290000D03*
X40650000Y32560000D03*
X40650000Y33830000D03*
X40650000Y35100000D03*
X40650000Y36370000D03*
X40650000Y37640000D03*
X40650000Y38910000D03*
X40650000Y40180000D03*
X40650000Y41450000D03*
X40650000Y42720000D03*
D42*
X29000000Y35700000D03*
X29000000Y34300000D03*
X29700000Y36400000D03*
X29700000Y35000000D03*
X29700000Y33600000D03*
X30375000Y35700000D03*
X30375000Y34300000D03*
D43*
X30400000Y35000000D03*
D42*
X31100000Y36400000D03*
X31100000Y35000000D03*
X31100000Y33600000D03*
X31800000Y35700000D03*
X31800000Y34300000D03*
%TD*%
D20*
%TO.C,C2*%
X6820000Y18600000D03*
X7780000Y18600000D03*
%TD*%
D44*
%TO.C,R16*%
X18705000Y13898400D03*
X17685000Y13898400D03*
%TD*%
D45*
%TO.C,U3*%
X18920200Y9480000D03*
D46*
X16620200Y3180000D03*
D45*
X16620200Y9480000D03*
X14320200Y9480000D03*
%TD*%
D24*
%TO.C,C9*%
X17452600Y41777800D03*
X17452600Y40817800D03*
%TD*%
D44*
%TO.C,R8*%
X15910000Y20900000D03*
X14890000Y20900000D03*
%TD*%
D47*
%TO.C,U1*%
X6112500Y17200000D03*
X6112500Y16250000D03*
X6112500Y15300000D03*
X8387500Y15300000D03*
X8387500Y16250000D03*
X8387500Y17200000D03*
%TD*%
D24*
%TO.C,C18*%
X20686400Y18435600D03*
X20686400Y17475600D03*
%TD*%
D38*
%TO.C,C3*%
X4200000Y19475000D03*
X4200000Y17925000D03*
%TD*%
D22*
%TO.C,C16*%
X26673800Y20600000D03*
X25713800Y20600000D03*
%TD*%
D25*
%TO.C,R18*%
X38106400Y21946000D03*
X38106400Y20926000D03*
%TD*%
%TO.C,R15*%
X30405800Y22525000D03*
X30405800Y21505000D03*
%TD*%
D48*
%TO.C,C1*%
X10225000Y15200000D03*
X11775000Y15200000D03*
%TD*%
D49*
%TO.C,SW1*%
X1879600Y39943800D03*
X1879600Y35743800D03*
%TD*%
D39*
%TO.C,D3*%
X10100000Y12850000D03*
X10100000Y9550000D03*
%TD*%
D25*
%TO.C,R11*%
X11099800Y33199800D03*
X11099800Y32179800D03*
%TD*%
D50*
%TO.C,R3*%
X12000000Y11990000D03*
X12000000Y13010000D03*
%TD*%
D51*
%TO.C,D1*%
X14808200Y38654000D03*
X14808200Y37509000D03*
%TD*%
D50*
%TO.C,R12*%
X18570200Y40790000D03*
X18570200Y41810000D03*
%TD*%
D25*
%TO.C,R14*%
X31625000Y22525000D03*
X31625000Y21505000D03*
%TD*%
D23*
%TO.C,C13*%
X21200000Y41280000D03*
X21200000Y42240000D03*
%TD*%
D52*
%TO.C,Q1*%
X14335800Y32166800D03*
X14335800Y32816800D03*
X14335800Y33466800D03*
X12435800Y33466800D03*
X12435800Y32816800D03*
X12435800Y32166800D03*
%TD*%
D51*
%TO.C,D4*%
X19594200Y18350300D03*
X19594200Y17205300D03*
%TD*%
D44*
%TO.C,R9*%
X18110000Y20900000D03*
X17090000Y20900000D03*
%TD*%
D25*
%TO.C,R20*%
X20686400Y16154200D03*
X20686400Y15134200D03*
%TD*%
D53*
%TO.C,H3*%
X43600000Y40000000D03*
X44302944Y41697056D03*
X44302944Y38302944D03*
X46000000Y42400000D03*
D54*
X46000000Y40000000D03*
D53*
X46000000Y37600000D03*
X47697056Y41697056D03*
X47697056Y38302944D03*
X48400000Y40000000D03*
%TD*%
D51*
%TO.C,D2*%
X17992100Y38657900D03*
X17992100Y37512900D03*
%TD*%
D55*
%TO.C,J3*%
X4000000Y10000000D03*
D56*
X4000000Y7500000D03*
%TD*%
D35*
%TO.C,U5*%
X27479400Y14145600D03*
X27479400Y15415600D03*
X27479400Y16685600D03*
X27479400Y17955600D03*
X22529400Y17955600D03*
X22529400Y16685600D03*
X22529400Y15415600D03*
X22529400Y14145600D03*
%TD*%
D57*
%TO.C,L1*%
X11200000Y17300000D03*
X11200000Y19600000D03*
%TD*%
D20*
%TO.C,C19*%
X23326200Y20600000D03*
X24286200Y20600000D03*
%TD*%
%TO.C,C17*%
X23356000Y19327200D03*
X24316000Y19327200D03*
%TD*%
D58*
%TO.C,R22*%
X4200000Y14625000D03*
X4200000Y16275000D03*
%TD*%
D48*
%TO.C,C6*%
X14016400Y11561600D03*
X15566400Y11561600D03*
%TD*%
D53*
%TO.C,H4*%
X43600000Y1000000D03*
X44302944Y2697056D03*
X44302944Y-697056D03*
X46000000Y3400000D03*
D54*
X46000000Y1000000D03*
D53*
X46000000Y-1400000D03*
X47697056Y2697056D03*
X47697056Y-697056D03*
X48400000Y1000000D03*
%TD*%
D59*
%TO.C,R21*%
X2000000Y17825000D03*
X2000000Y16175000D03*
%TD*%
D53*
%TO.C,H2*%
X1600000Y1000000D03*
X2302944Y2697056D03*
X2302944Y-697056D03*
X4000000Y3400000D03*
D54*
X4000000Y1000000D03*
D53*
X4000000Y-1400000D03*
X5697056Y2697056D03*
X5697056Y-697056D03*
X6400000Y1000000D03*
%TD*%
D25*
%TO.C,R13*%
X36684000Y21946000D03*
X36684000Y20926000D03*
%TD*%
D50*
%TO.C,R10*%
X10083800Y32179800D03*
X10083800Y33199800D03*
%TD*%
D60*
%TO.C,J5*%
X11074400Y40835200D03*
X11074400Y36935200D03*
X9804400Y40835200D03*
X9804400Y36935200D03*
X8534400Y40835200D03*
X8534400Y36935200D03*
X7264400Y40835200D03*
X7264400Y36935200D03*
X5994400Y40835200D03*
X5994400Y36935200D03*
%TD*%
D39*
%TO.C,D5*%
X17079600Y15254200D03*
X17079600Y18554200D03*
%TD*%
D36*
%TO.C,J2*%
X38500000Y9500000D03*
D37*
X38500000Y7000000D03*
X38500000Y4500000D03*
X38500000Y2000000D03*
%TD*%
%LPD*%
M02*
